<?xml version="1.0" encoding="utf-8"?>
<!-- Generator: Adobe Illustrator 25.2.3, SVG Export Plug-In . SVG Version: 6.00 Build 0)  -->
<svg version="1.1" id="Camada_1" xmlns="http://www.w3.org/2000/svg" xmlns:xlink="http://www.w3.org/1999/xlink" x="0px" y="0px"
	 viewBox="0 0 900 800.2" style="enable-background:new 0 0 900 800.2;" xml:space="preserve">
<style type="text/css">
	.st0{fill-rule:evenodd;clip-rule:evenodd;fill:#F3F9FD;}
	.st1{fill-rule:evenodd;clip-rule:evenodd;fill:#CCE2F5;}
	.st2{fill-rule:evenodd;clip-rule:evenodd;fill:#75A3DC;}
	.st3{fill-rule:evenodd;clip-rule:evenodd;fill:#B0CCED;}
	.st4{fill-rule:evenodd;clip-rule:evenodd;fill:#DEEDF9;}
	.st5{fill-rule:evenodd;clip-rule:evenodd;fill:#4B5FB5;}
	.st6{fill-rule:evenodd;clip-rule:evenodd;fill:#2750A7;}
	.st7{fill-rule:evenodd;clip-rule:evenodd;fill:#6C341F;}
	.st8{fill-rule:evenodd;clip-rule:evenodd;fill:#F13EA7;}
	.st9{fill-rule:evenodd;clip-rule:evenodd;fill:#B6155F;}
	.st10{fill-rule:evenodd;clip-rule:evenodd;fill:#3E1F17;}
	.st11{fill-rule:evenodd;clip-rule:evenodd;fill:#E0877A;}
	.st12{fill-rule:evenodd;clip-rule:evenodd;fill:#971A1F;}
	.st13{fill-rule:evenodd;clip-rule:evenodd;fill:#EE2E21;}
	.st14{fill-rule:evenodd;clip-rule:evenodd;fill:#2A1414;}
	.st15{fill-rule:evenodd;clip-rule:evenodd;fill:#F89A75;}
	.st16{fill-rule:evenodd;clip-rule:evenodd;fill:#ED1D24;}
	.st17{fill-rule:evenodd;clip-rule:evenodd;fill:#F3E4D0;}
	.st18{fill-rule:evenodd;clip-rule:evenodd;fill:#BC2A74;}
	.st19{fill-rule:evenodd;clip-rule:evenodd;fill:#CD6D49;}
	.st20{fill-rule:evenodd;clip-rule:evenodd;fill:#997360;}
	.st21{fill-rule:evenodd;clip-rule:evenodd;fill:#B5917D;}
	.st22{clip-path:url(#SVGID_2_);}
	.st23{fill-rule:evenodd;clip-rule:evenodd;fill:#5B4F92;}
	.st24{clip-path:url(#SVGID_4_);}
	.st25{fill-rule:evenodd;clip-rule:evenodd;fill:#282541;}
	.st26{fill-rule:evenodd;clip-rule:evenodd;fill:#9CC1E9;}
	.st27{fill-rule:evenodd;clip-rule:evenodd;fill:#E12085;}
	.st28{fill-rule:evenodd;clip-rule:evenodd;fill:#558ACF;}
	.st29{clip-path:url(#SVGID_6_);}
	.st30{fill-rule:evenodd;clip-rule:evenodd;fill:#FBC907;}
	.st31{fill-rule:evenodd;clip-rule:evenodd;fill:#EE8960;}
	.st32{fill-rule:evenodd;clip-rule:evenodd;fill:#ACC6E8;}
	.st33{fill-rule:evenodd;clip-rule:evenodd;fill:#D5ECF6;}
	.st34{fill-rule:evenodd;clip-rule:evenodd;fill:#DB9963;}
	.st35{fill-rule:evenodd;clip-rule:evenodd;fill:#F68D11;}
	.st36{fill-rule:evenodd;clip-rule:evenodd;fill:#353433;}
</style>
<g id="surface1">
	<path class="st0" d="M403.2,25.4l-6.8,4.1l-374.2,215L139,537.2l2,4.4l390.8-224.5L412.7,20L403.2,25.4z M331.2,457.4l-140.6,81.2
		c-6.1,3.6-11.9,6.6-17.3,8.8l-4.7,2c-0.7,0-1.1,0.2-1.4,0.7l-21.7,4.1h-0.3c-0.2,0-0.4,0-0.7,0c-0.7-0.2-1.2-0.3-1.7-0.3h-0.3
		c-7.5-1.6-12.9-6.3-16.3-14.3L13.4,259.4c-7.9-19.5,5.7-39.5,40.7-60.1L365.1,20c14.7-8.6,26.9-13.6,36.7-14.9
		c0.7-0.2,1.1-0.3,1.4-0.3c12.9-1.4,21.7,3.4,26.5,14.3l112.7,280.5c1.1,2.9,1.8,6,2,9.2c0,0.7,0,1.5,0,2.4c0,0.4,0,1.1,0,2v0.3
		c-0.9,9.3-8.1,19.8-21.7,31.6l-9.5,6.8c-3.6,2.5-7.6,4.9-11.9,7.1l-169.4,97.8h-0.7V457.4"/>
	<path class="st1" d="M271.8,558.6h-0.7c-1.6-0.9-3.2-0.9-4.7,0h0.3l-13.6,7.8c-1.1,0.4-1.8,0.7-2,0.7c0.2,0.2,0.7,0.6,1.4,1
		l5.8,3.4c1.6,0.7,3.3,0.6,5.1-0.3l13.6-8.1c0.5-0.2,0.8-0.4,1-0.7c-0.2,0-0.6-0.2-1-0.7L271.8,558.6z M412.7,613.6l-1-0.3l-5.8-3.1
		l-17.7,9.9l4.8,2c0.2,0.2,0.4,0.4,0.7,0.7c1.4,0.5,2.8,0.3,4.4-0.3v-0.3l13.2-8.2C412.2,614,412.7,613.9,412.7,613.6z M390.6,627.9
		l-5.4-3.4c-2-0.9-3.8-0.9-5.4,0l-14.6,8.5l0.7,0.7h0.3l5.1,3c1.6,0.9,3.2,0.9,4.8,0l13.2-8.5C390.1,628.2,390.6,628.1,390.6,627.9z
		 M341.4,517.9c-0.2,0-0.4-0.1-0.7-0.3c-1.6-0.4-2.9-0.3-4.1,0.3l-14.9,8.8c0,0.2,0.3,0.6,1,1v-0.3l0.7,0.3l4.1,3.1
		c1.4,0.4,2.6,0.7,3.7,0.7c0.5-0.2,0.9-0.4,1.4-0.7l14.3-8.2c0.2-0.2,0.6-0.4,1-0.7c-0.4-0.2-0.9-0.5-1.4-0.7L341.4,517.9z
		 M341,534.2c-1.8-1.1-3.7-1.1-5.8,0h0.3l-13.2,7.8H322l-0.7,0.7c0,0.2,0.3,0.6,1,1l13.2,7.5c1.8,1.4,3.7,1.4,5.8,0l13.6-7.5
		c0.5-0.5,0.9-0.8,1.4-1c-0.4,0-0.9-0.2-1.4-0.7L341,534.2z M317.6,531.8h-0.7c0-0.2-0.2-0.3-0.7-0.3c-1.1-0.2-2.3-0.1-3.4,0.3
		l-15.3,8.5l6.4,3.7c2,0.9,3.8,0.9,5.4,0v-0.3l13.9-7.8c0.4-0.5,0.8-0.7,1-0.7c-0.2,0-0.8-0.1-1.7-0.3L317.6,531.8z M316.9,565.1
		c0.4-0.2,0.9-0.4,1.4-0.7l13.9-8.2c0.2,0,0.7-0.1,1.4-0.3c-0.7,0-1.1-0.2-1.4-0.7l-13.9-8.1c-0.5-0.2-0.9-0.3-1.4-0.3
		c-1.1-0.2-2.4-0.1-3.7,0.3l-13.2,8.1h-0.7l-0.7,0.7c0,0.2,0.5,0.3,1.4,0.3l13.2,8.2C314.6,565.1,315.8,565.3,316.9,565.1z
		 M331.5,562c0.2,0.2,0.4,0.3,0.7,0.3l13.9,8.5c1.8,0.9,3.6,0.9,5.4,0l13.6-8.5c0.5,0,0.8-0.1,1-0.3c-0.2,0-0.6-0.1-1-0.3l-13.6-8.2
		c-1.8-0.9-3.6-0.9-5.4,0l-13.9,8.2C332,561.9,331.8,562,331.5,562z M293.5,544.7c-1.1-0.7-2.4-0.6-3.7,0.3l-14.9,8.8
		c0,0.2,0.1,0.3,0.3,0.3l5.4,3.1h-0.3c2,1.4,4,1.4,5.8,0l13.9-7.8c0.5,0,0.7-0.1,0.7-0.3c0-0.2-0.2-0.4-0.7-0.7l-5.4-3.4
		C294.3,545,294,544.9,293.5,544.7z M297.6,559.6c-2.3-0.7-4.2-0.7-5.8,0l-25.1,14.6l-1,0.3c0,0.4,0.3,0.8,1,1l13.6,8.1
		c1.8,0.7,3.4,0.7,4.8,0v-0.3l25.5-14.6c0.5,0,0.8-0.2,1-0.7c-0.2,0-0.6,0-1,0L297.6,559.6z M310.2,574.2h-0.3
		c-0.5,0.2-0.8,0.3-1,0.3c0.2,0.7,0.7,1.1,1.4,1.4l13.2,7.8c2,1.1,3.8,1.1,5.4,0l13.9-7.8c0.7-0.2,1-0.7,1-1.4l-14.6-7.8
		c-1.8-0.9-3.7-1-5.8-0.3L310.2,574.2z M307.4,579c-1.8-0.9-3.5-0.9-5.1,0l-14.3,7.8l-0.3,1c0,0.2,0.1,0.6,0.3,1h0.7l13.6,7.8
		c1.6,1.1,3.3,1.1,5.1,0l14.3-7.8c0.2-0.5,0.3-0.8,0.3-1l-0.3-1L307.4,579z M310.2,600.1l-0.3,1h-0.3c0.2,0,0.4,0.2,0.7,0.7
		l14.3,7.1v0.7c1.4,0.9,2.8,0.7,4.4-0.7l31.9-18c0.4-0.2,0.8-0.3,1-0.3c-0.2,0-0.6-0.1-1-0.3l-13.9-8.1c-1.8-0.9-3.5-0.9-5.1,0
		L310.2,600.1z M348.5,578c0.2,0,0.7,0.3,1.4,1l13.9,7.5c1.4,1.1,3.1,1.1,5.1,0l13.2-7.5l1-1l-14.3-8.8c-2-0.7-4-0.7-5.8,0
		l-13.2,8.5h-0.7C349,577.9,348.7,578,348.5,578z M410.3,537.2c0.2-0.4,0.5-0.8,0.7-1c-0.2,0-0.4-0.3-0.7-1l-13.6-7.5
		c-1.1-0.7-2.1-0.9-3.1-0.7c-0.9,0-1.7,0.1-2.4,0.3l-14.9,8.5c0,0.4,0.6,0.9,1.7,1.4l13.2,7.5c0.7,0.4,1.5,0.8,2.4,1
		c0.9,0,1.9-0.3,3.1-1L410.3,537.2z M388.2,549.4c0-0.2-0.2-0.6-0.7-1l-13.6-8.2c-1.8-0.9-3.5-0.9-5.1,0l-14.9,8.8
		c0,0.2,0.4,0.3,1.4,0.3l13.6,7.8c1.6,1.4,3.3,1.4,5.1,0l13.6-7.8H388.2z M390.6,556.2c-1.6-0.9-3-0.9-4.4,0l-14.3,7.8l-0.7,0.7
		c0,0.5,0.3,0.8,1,1l13.9,7.8c1.4,0.7,2.8,0.7,4.4,0l14.3-7.8c0.2-0.2,0.6-0.5,1-0.7c-0.4,0-0.8-0.2-1-0.7L390.6,556.2z
		 M382.1,583.8c0,0.4,0.3,0.8,1,1l13.9,7.8c1.1,0.9,2.8,0.9,5.1,0l13.6-7.8c0-0.2,0.2-0.6,0.7-1c-0.4,0-0.7-0.1-0.7-0.3l-13.6-7.8
		c-1.8-1.1-3.5-1.1-5.1,0L382.1,583.8z M380.1,588.9c-1.6-1.4-3.3-1.4-5.1,0h0.3L331.9,613c-0.2,0.2-0.3,0.5-0.3,0.7
		c0,0.2,0.1,0.5,0.3,0.7V614l14.6,8.2v0.3c1.4,0.9,3.1,0.9,5.1,0v-0.3l42.1-24.8c0.2-0.5,0.6-0.7,1-0.7c-0.5,0-0.8-0.1-1-0.3
		L380.1,588.9z M400.5,606.8l-2.4-1.4c-1.6-1.1-3.1-1.4-4.4-0.7c-0.2,0-0.5,0.2-0.7,0.7l-13.9,7.8c-0.5,0.2-0.8,0.3-1,0.3
		c0.2,0.2,0.4,0.3,0.7,0.3h0.3l4.4,3.4L400.5,606.8z M417.8,480.2l-5.4-3.1c-0.2,0-0.7-0.1-1.4-0.3c-0.9-0.7-2.4-0.6-4.4,0.3h0.3
		l-13.6,7.5c-0.4,0.7-0.7,1.1-0.7,1.4l0.7,0.7v-0.7l0.3,0.3l5.1,3.1h-0.3c1.4,1.1,3.1,1.1,5.1,0l14.3-8.1c0.2,0,0.6-0.2,1-0.7
		C418.3,480.5,418,480.4,417.8,480.2z M383.5,490.7l-14.3,8.8l-0.3,0.3l6.4,3.4c1.4,1.1,2.8,1.1,4.4,0l14.3-8.1v0.3
		c0.2-0.4,0.5-0.8,0.7-1c-0.2,0-0.5-0.1-0.7-0.3l-5.8-3.4c0-0.2-0.2-0.3-0.7-0.3C386.2,490.1,384.8,490.2,383.5,490.7z M363.8,521.3
		c-2-0.9-3.7-0.9-5.1,0l-13.9,7.8l-0.7,0.7c0,0.2,0.2,0.7,0.7,1.4v-0.3l13.9,7.8c1.4,0.9,3,0.7,5.1-0.7l13.6-7.8l1-0.3l-1-0.7
		L363.8,521.3z M351.6,516.9c1.6,0.7,3.4,0.7,5.4,0l13.6-8.5c0.4,0,0.7-0.1,0.7-0.3l-0.7-0.7l-5.4-3.4h-1c-1.1-0.5-2.6-0.3-4.4,0.3
		l-13.2,8.1h-0.3l-1,0.7l1,0.3l5.4,3.7V516.9z M366.2,516.9c0,0.2,0.3,0.4,1,0.7l14.3,7.8c1.4,0.9,2.9,0.9,4.7,0l13.9-7.8
		c0.2-0.2,0.3-0.4,0.3-0.7l-0.3-1.4l-13.9-7.5c-1.8-1.1-3.4-1.1-4.7,0L366.2,516.9z M513.9,451.6c-0.2,0-0.6-0.2-1-0.7l-13.9-7.8
		c-1.8-1.1-3.5-1.1-5.1,0l-14.6,8.5l1,0.7V452l13.6,7.5v1c1.6,0.7,3.5,0.3,5.8-1l13.2-7.5C513.3,451.8,513.6,451.6,513.9,451.6z
		 M490.4,465.2v0.7c0.2-0.7,0.6-1.1,1-1.4c-0.4,0-0.8-0.2-1-0.7l-13.9-8.1c-0.7-0.2-1.4-0.3-2-0.3c-0.9-0.2-1.8-0.1-2.7,0.3
		l-14.9,8.8c0,0.2,0.2,0.7,0.7,1.4v-0.7l14.3,7.8c0.9,0.4,1.8,0.7,2.7,0.7c0.7-0.2,1.4-0.4,2-0.7L490.4,465.2z M518.3,500.2
		c-0.2,0-0.3-0.2-0.3-0.7l-14.3-8.5c-1.6-0.7-3.2-0.7-4.8,0l-14.9,8.8c0,0.2,0.2,0.4,0.7,0.7v-0.3l14.3,8.2c1.6,1.1,3.2,1.1,4.8,0
		l14.3-8.2H518.3z M507.4,488v-0.3l13.9,7.8c1.6,1.1,3.3,1.1,5.1,0l13.9-7.8c0.4-0.2,0.8-0.8,1-1.7c-0.2,0-0.6,0-1,0l-13.9-7.8
		c-1.8-0.9-3.5-0.9-5.1,0l-13.9,7.8c-0.9,0-1.4,0.2-1.4,0.7C506,487.1,506.5,487.5,507.4,488z M501.3,483.9l-0.7-0.7l-13.9-8.1
		c-1.8-0.9-3.5-0.9-5.1,0l-13.6,8.1c-0.9,0.2-1.4,0.5-1.4,0.7s0.4,0.4,1.4,0.7l13.6,8.1c1.6,1.1,3.3,1.1,5.1,0l13.9-8.1
		C501.1,484.4,501.3,484.1,501.3,483.9z M495.5,513.5c0-0.2,0.2-0.6,0.7-1h-0.7l-14.2-8.5c-1.8-0.7-3.5-0.7-5.1,0l-14.3,8.5h-0.3
		c0.2,0.5,0.3,0.8,0.3,1l14.6,8.1c1.4,0.7,2.9,0.7,4.8,0v-0.3L495.5,513.5z M495.2,518.9c0,0.4,0.1,0.8,0.3,1l13.9,7.8
		c1.6,0.9,3.3,0.9,5.1,0v-0.3l14.3-7.5c0-0.2,0.1-0.6,0.3-1c-0.2-0.2-0.3-0.6-0.3-1l-13.9-7.8c-2-1.1-3.8-1.1-5.4,0l-13.9,7.8
		C495.3,518.3,495.2,518.7,495.2,518.9z M517.9,506v0.3l14.3,8.5c1.6,0.4,3.3,0.4,5.1,0l13.6-8.5v0.3c0.7-0.4,1.1-0.7,1.4-0.7
		c-0.2,0-0.7-0.2-1.4-0.7l-13.6-8.1c-1.8-0.7-3.5-0.7-5.1,0l-13.9,8.1C518,505.3,517.9,505.5,517.9,506z M457.5,450.3
		c-1.4-0.9-2.7-0.9-4.1,0l-14.6,8.5c0,0.5,0.3,0.7,1,0.7h0.7l4.1,3.1c1.8,0.9,3.6,0.9,5.4,0l14.3-7.8c0.2-0.2,0.4-0.6,0.7-1
		c-0.2,0-0.4,0-0.7,0l-5.4-3.4C458.4,450.3,458,450.3,457.5,450.3z M468.4,478.1l-0.3-1l-14.3-8.1c-1.8-0.9-3.6-0.9-5.4,0h0.7
		l-13.9,8.1c-0.9,0.2-1.4,0.6-1.4,1h1l14.3,7.8h-0.7c1.8,1.4,3.8,1.4,6.1,0L468.4,478.1z M435.1,463.9c-0.2,0-0.4-0.1-0.7-0.3
		c-1.4-0.2-2.8-0.1-4.4,0.3l-13.6,7.8c-0.7,0.4-1,0.8-1,1h0.3v0.3l6.1,3.7l-0.3-0.7c1.8,1.4,3.8,1.3,6.1-0.3l12.9-7.8l1-0.3l-1-1
		L435.1,463.9z M445.3,491c0.4-0.2,0.9-0.5,1.4-0.7c-0.4,0-0.9-0.1-1.4-0.3l-13.9-8.2c-1.8-0.9-3.5-0.9-5.1,0l-13.9,8.2
		c-0.4,0.2-0.7,0.4-0.7,0.7c0,0.2,0.2,0.6,0.7,1V491l13.9,8.5h-0.7c2,0.7,4,0.7,5.8,0L445.3,491z M445.3,496.5h-0.7v0.7h0.7
		l13.9,8.1c1.8,0.9,3.5,0.9,5.1,0l13.6-8.1v0.7c0.4-0.5,0.9-0.7,1.4-0.7c-0.5,0-0.9-0.2-1.4-0.7l-13.6-8.5c-1.6-0.5-3.3-0.5-5.1,0
		L445.3,496.5z M441.9,501.2c-2.1-0.7-3.9-0.7-5.5,0l-14.6,8.8h0.7l13.9,8.5c1.6,0.9,3.3,0.9,5.1,0l14.9-8.5c-0.4,0-0.7-0.2-0.7-0.7
		L441.9,501.2z M433,522.6h-0.3l-13.2-7.8c-2.5-1.1-4.3-1.1-5.4,0l-13.6,7.8c-0.7,0-1.3,0-1.7,0c0.4,0.2,0.9,0.6,1.4,1h0.3l13.6,8.2
		c1.1,1.1,2.9,1,5.4-0.3l14.3-8.5L433,522.6z M422.5,503.9v0.3c0.7-0.4,1.1-0.7,1.4-0.7c-0.2,0-0.7-0.1-1.4-0.3l-13.9-8.1
		c-1.8-1.1-3.5-1.1-5.1,0l-13.3,8.1h-1l-0.3,0.3l0.3,0.7v-0.3l14.3,8.5c1.6,0.9,3.3,0.9,5.1,0L422.5,503.9z M459.2,517.5
		c-2.3-1.4-4.2-1.4-5.8,0l-13.6,7.5l-1,0.7c0,0.2,0.5,0.4,1.4,0.7l13.6,8.2c1.3,0.9,3.2,0.9,5.4,0l13.6-8.2v0.3l0.7-0.7L459.2,517.5
		z M471.8,531.8c0.4,0.2,1,0.3,1.7,0.3l13.2,8.1c1.6,1.1,3.5,1.1,5.8,0l13.6-8.1v0.3c0-0.2,0.1-0.5,0.3-0.7c-0.2,0-0.3-0.2-0.3-0.7
		l-13.6-8.1c-2.3-0.7-4.1-0.7-5.4,0l-13.6,8.1C472.8,531.6,472.2,531.8,471.8,531.8z M469.7,536.5c-2-1.1-3.8-1.2-5.4-0.3l-13.3,8.1
		h-0.7l-0.7,0.7l1.4,0.3l13.3,8.1c1.6,0.9,3.4,0.9,5.4,0l13.6-8.1l0.7-0.3l-0.3-0.7L469.7,536.5z M460.9,558.6c0.7-0.5,1-0.9,1-1.4
		h-0.7l-14.3-7.8c-1.6-0.7-3.4-0.7-5.4,0h0.3l-13.9,7.5c-0.2,0.2-0.3,0.6-0.3,1c0,0.4,0.1,0.8,0.3,1l13.9,7.8h-0.3
		c2,0.9,3.8,0.9,5.4,0v-0.3L460.9,558.6z M450,539.6v0.3c0.7-0.5,1-0.8,1-1l-1-1l-13.9-7.8c-0.9-0.5-1.9-0.7-3.1-0.7
		c-0.4,0.2-1.1,0.5-2,0.7l-15.3,8.8c0,0.2,0.4,0.6,1.4,1v-0.3l13.9,7.8c0.9,0.5,1.6,0.8,2,1c1.1,0,2.2-0.3,3.1-1L450,539.6z
		 M427.6,552.5c0.2-0.2,0.4-0.5,0.7-0.7c-0.2,0-0.5-0.2-0.7-0.7l-14.3-7.5c-1.8-1.1-3.5-1.1-5.1,0l-14.6,8.1c0,0.2,0.2,0.6,0.7,1
		v-0.3l13.9,7.8v0.3c1.6,0.9,3.3,0.8,5.1-0.3L427.6,552.5z M424.6,562.4c-1.8-1.1-3.5-1.1-5.1,0l-13.6,8.5c-0.9,0.2-1.4,0.4-1.4,0.7
		l14.9,8.2c1.6,1.1,3.3,1.1,5.1,0l13.9-8.2c0.2,0,0.3-0.1,0.3-0.3l-0.3-0.3L424.6,562.4z M447.3,576.3c-1.8-1.4-3.5-1.4-5.1,0
		l-18.7,10.9l-1,1l1,0.7v-0.7l13.6,7.8c1.6,1.1,3.3,1.1,5.1,0l19-10.9c0.4-0.2,0.7-0.4,0.7-0.7l-0.3-0.7L447.3,576.3z M435.1,601.1
		l-4.8-2.7c-1.6-1.1-3.3-1.1-5.1,0l-14.6,7.8c0,0.7,0.3,1.1,1,1.4l4.7,3v0.3c1.6,0.7,3.4,0.7,5.4,0v-0.3l13.2-8.1
		c0.4-0.2,0.9-0.7,1.4-1.4C436,601.1,435.5,601.1,435.1,601.1z M546.4,457.7l-0.7-1l-13.9-7.8c-2-0.9-3.6-0.9-4.8,0l-14.2,7.8l-1,1
		l15.3,8.5c1.1,1.1,2.7,1.1,4.8,0l13.9-7.8L546.4,457.7z M523.4,471.3l0.3-0.3l-14.3-8.5c-2.3-0.9-4-0.9-5.1,0l-15.3,8.5
		c0,0.2,0.6,0.4,1.7,0.7l13.6,8.1c1.1,0.9,2.8,0.8,5.1-0.3L523.4,471.3z M653.4,607.2l-15.3,8.7c3.7-8.2,7.5-16.4,11.5-24.6
		c0.7-1.8,1.7-3.5,3.1-5.1c0,0.7,0.1,1.6,0.3,2.7L653.4,607.2z M589.4,643.5l-2.9,1.7c-9.1,5.2-16,6.7-20.7,4.4L501,611.9l-0.3-0.3
		c1.1-1.1,3-2.5,5.4-4.1c0.5-0.2,0.9-0.5,1.4-0.7l81.8-47.2c4.2-2.4,7.9-3.9,11.2-4.6c-1.2,3.8-2.2,7.7-3.1,11.7
		c-3.4,13.1-6.2,26.3-8.5,39.4c-1.1,7.9-1.5,15.8-1,23.8C588.1,634.5,588.6,639.1,589.4,643.5z M573.6,519.9c0.9,0,1.4-0.1,1.4-0.3
		l-1-1l-13.9-7.5c-1.6-0.7-3.2-0.7-4.8,0l-103.2,59.8l-1,0.7h1.4l12.9,8.2c1.8,1.1,3.4,1.1,4.8,0L573.6,519.9z M588.9,494.4
		c-2-0.7-3.8-0.6-5.4,0.3l-14.6,8.5l14.6,8.5c1.6,1.1,3.4,1.1,5.4,0l13.6-8.1c0.2-0.2,0.6-0.3,1-0.3c-0.5,0-0.7-0.2-0.7-0.7
		L588.9,494.4z M588,433.8l14.4-8c0.2-0.2,0.3-0.4,0.3-0.7l-1-0.3l-0.7-0.5c0.2-0.1,0.4-0.3,0.7-0.5c1.1-1.1,1.9-2,2.4-2.7
		c1.4,0.9,3.1,1.4,5.1,1.4c-0.9,1.4-1.9,2.8-3.1,4.4c0,0.2-0.1,0.4-0.3,0.7c-5.4,0.2-11.4,2.5-18,6.8C587.9,434.1,588,434,588,433.8
		z M525.1,424.8c-0.7,0.2-1,0.5-1,0.7c0,0.2,0.3,0.3,1,0.3l14.3,8.5c1.4,0.7,3.1,0.7,5.1,0l13.9-8.5c0.2,0,0.3-0.1,0.3-0.3l-0.3-0.7
		l-13.9-8.1c-2-0.7-3.8-0.7-5.4,0h0.3L525.1,424.8z M486.4,431.6l0.7,0.3l5.8,3.4c1.8,1.1,3.5,1.1,5.1,0l13.2-8.5
		c0.5-0.2,0.9-0.3,1.4-0.3c-0.5,0-0.9-0.2-1.4-0.7l-5.1-3c-0.2,0-0.6,0-1,0c-1.4-0.7-2.6-0.7-3.7,0L486.4,431.6z M482.3,436.7
		c-0.5-0.2-0.8-0.3-1-0.3c-1.4-0.2-2.8-0.1-4.4,0.3h0.3l-15.3,8.5c0,0.5,0.5,0.9,1.4,1.3v-0.3l5.1,2.7c2,0.9,4,0.9,5.8,0h0.3
		l12.9-7.8c0.7-0.5,1.1-0.7,1.4-0.7c-0.2,0-0.7-0.3-1.4-1L482.3,436.7z M552.9,395.9c-1.6-0.9-3.3-0.9-5.1,0l-13.6,8.1
		c-0.7,0-1,0.1-1,0.3l6.5,3.7h-0.3c1.8,0.9,3.6,0.9,5.4,0l13.6-8.2v0.3c0.2-0.4,0.6-0.7,1-0.7c-0.5,0-0.8-0.1-1-0.3L552.9,395.9z
		 M510.1,417.3l-0.7,0.7l6.5,3.7c1.4,1.4,3.1,1.4,5.1,0l14.3-8.1v0.3c0.2-0.2,0.3-0.4,0.3-0.7l-0.3-0.7l-6.5-3.1h-0.7
		c-1.1-0.7-2.5-0.7-4.1,0L510.1,417.3z M502.6,438.1c-0.4,0-0.7,0.2-0.7,0.7c0,0.2,0.2,0.3,0.7,0.3l13.9,8.1
		c1.4,0.9,3.1,0.7,5.1-0.7l13.9-7.5l1-0.3c0-0.4-0.3-0.7-1-0.7l-14.3-8.5c-1.8-0.7-3.4-0.7-4.8,0L502.6,438.1z M580.1,413.3
		c0,0.8,0,2.6,0,5.4l-21.4,12.2c-0.2,0-0.6,0-1,0c0.5,0.5,0.8,0.7,1,0.7l8.5,4.6c-0.6,0.8-1.1,1.7-1.7,2.6c-0.6,0.9-1.2,1.7-1.9,2.5
		l-9-4.9c-1.6-0.9-3.3-0.9-5.1,0l-13.9,7.5l-1,1c0,0.2,0.3,0.3,1,0.3l13.9,8.5c1.8,0.7,3.5,0.7,5.1,0l2.2-1.4
		c-1.4,2.4-2.7,4.7-3.7,6.8l-0.8,0.3l-0.3,1c0,0.2,0.1,0.4,0.2,0.5c-0.8,1.6-1.5,3.2-2,4.6l-0.5-0.3c-2.5-0.9-4.4-0.9-5.8,0
		l-13.6,7.5c-0.9,0.5-1.4,0.8-1.4,1l1.4,1v-0.3l13.6,7.8v0.7c1.4,0.7,3.3,0.4,5.8-0.7c1,1.1,2.4,1.9,4.2,2.5l-12.7,7.3h-0.3
		c-0.2,0.4-0.4,0.7-0.7,0.7c0.2,0.2,0.6,0.5,1,0.7l13.6,7.8c0.2,0,0.5,0.1,0.7,0.3c1.6,0.7,3.2,0.6,4.8-0.3l13.6-7.8
		c0.9-0.2,1.4-0.5,1.4-0.7l-11.9-6.8c3.2,0,6.2-0.3,9.2-0.8l5.1,2.9v0.3c1.6,1.1,3.2,1,4.8-0.3l14.3-7.8c0.4,0,0.8-0.1,1-0.3
		c-0.2,0-0.5-0.3-0.7-1l-3.4-1.9c1.4-0.9,2.8-2,4.1-3.1l2,1.2c1.6,1.4,3.3,1.4,5.1,0l3.1-1.9c0.3,2.6,0.6,5.2,0.7,7.8
		c-0.6,0.1-1.3,0.3-2,0.8l-14.3,7.5l-0.3,1l0.3,0.3l14.3,8.2c0.4,0.2,0.7,0.4,1,0.5c-0.8,5.3-2.2,10.7-4.1,16.1L408.3,627.2
		c-5.2,2.9-10.1,5.7-14.6,8.1c-19.5,9.3-32.7,11.9-39.7,7.8l-125.6-72c-1.4-0.7-2.3-1.5-2.7-2.4c1.1-2.5,3.7-5.4,7.8-8.8
		c5-4.3,12.5-9.4,22.7-15.3L501,404.4c27.6-16.1,45.7-21.4,54.3-16l26.3,15.1c-0.9,2.2-1.4,4.9-1.5,8l-13.2-7.5
		c-1.4-0.9-2.7-1.1-4.1-0.7c-0.2,0-0.6,0.2-1,0.7l-15.3,8.2c0,0.2,0.4,0.6,1.4,1v-0.3l13.9,8.2c1.6,0.7,3.3,0.7,5.1,0L580.1,413.3"
		/>
	<path class="st2" d="M390.6,627.9c0,0.2-0.5,0.3-1.3,0.3l-13.2,8.5c-1.6,0.9-3.2,0.9-4.8,0l-5.1-3h-0.3l-0.7-0.7l14.6-8.5
		c1.6-0.9,3.4-0.9,5.4,0L390.6,627.9z M412.7,613.6c0,0.2-0.5,0.3-1.4,0.3l-13.2,8.2v0.3c-1.6,0.7-3.1,0.8-4.4,0.3
		c-0.2-0.2-0.5-0.4-0.7-0.7l-4.8-2l17.7-9.9l5.8,3.1L412.7,613.6z M271.8,558.6l5.1,3.1c0.5,0.4,0.8,0.7,1,0.7
		c-0.2,0.2-0.6,0.5-1,0.7l-13.6,8.1c-1.8,0.9-3.5,1-5.1,0.3l-5.8-3.4c-0.7-0.4-1.1-0.8-1.4-1c0.2,0,0.9-0.2,2-0.7l13.6-7.8h-0.3
		c1.6-0.9,3.2-0.9,4.7,0H271.8z M400.5,606.8l-17,10.5l-4.4-3.4h-0.3c-0.2,0-0.4-0.1-0.7-0.3c0.2,0,0.5-0.1,1-0.3l13.9-7.8
		c0.2-0.5,0.4-0.7,0.7-0.7c1.4-0.7,2.8-0.5,4.4,0.7L400.5,606.8z M380.1,588.9l13.6,7.5c0.2,0.2,0.6,0.3,1,0.3c-0.5,0-0.8,0.2-1,0.7
		l-42.1,24.8v0.3c-2,0.9-3.7,0.9-5.1,0v-0.3l-14.6-8.2v0.3c-0.2-0.2-0.3-0.5-0.3-0.7c0-0.2,0.1-0.4,0.3-0.7l43.4-24.1H375
		C376.8,587.5,378.5,587.5,380.1,588.9z M382.1,583.8l14.9-8.1c1.6-1.1,3.3-1.1,5.1,0l13.6,7.8c0,0.2,0.2,0.3,0.7,0.3
		c-0.4,0.4-0.7,0.8-0.7,1l-13.6,7.8c-2.3,0.9-3.9,0.9-5.1,0l-13.9-7.8C382.5,584.6,382.1,584.2,382.1,583.8z M390.6,556.2l14.3,8.2
		c0.2,0.4,0.6,0.7,1,0.7c-0.4,0.2-0.8,0.5-1,0.7l-14.3,7.8c-1.6,0.7-3,0.7-4.4,0l-13.9-7.8c-0.7-0.2-1-0.6-1-1l0.7-0.7l14.3-7.8
		C387.6,555.3,389,555.3,390.6,556.2z M388.2,549.4h-0.7l-13.6,7.8c-1.8,1.4-3.5,1.4-5.1,0l-13.6-7.8c-0.9,0-1.4-0.1-1.4-0.3
		l14.9-8.8c1.6-0.9,3.3-0.9,5.1,0l13.6,8.2C388,548.9,388.2,549.2,388.2,549.4z M410.3,537.2l-13.6,7.5c-1.1,0.7-2.1,1-3.1,1
		c-0.9-0.2-1.7-0.6-2.4-1l-13.2-7.5c-1.1-0.4-1.7-0.9-1.7-1.4l14.9-8.5c0.7-0.2,1.5-0.3,2.4-0.3c0.9-0.2,1.9,0,3.1,0.7l13.6,7.5
		c0.2,0.7,0.5,1,0.7,1C410.8,536.4,410.5,536.8,410.3,537.2z M348.5,578c0.2,0,0.4-0.1,0.7-0.3h0.7l13.2-8.5c1.8-0.7,3.7-0.7,5.8,0
		l14.3,8.8l-1,1l-13.2,7.5c-2,1.1-3.7,1.1-5.1,0l-13.9-7.5C349.2,578.3,348.7,578,348.5,578z M310.2,600.1l31.6-18
		c1.6-0.9,3.3-0.9,5.1,0l13.9,8.1c0.4,0.2,0.8,0.3,1,0.3c-0.2,0-0.6,0.1-1,0.3l-31.9,18c-1.6,1.4-3.1,1.6-4.4,0.7v-0.7l-14.3-7.1
		c-0.2-0.4-0.4-0.7-0.7-0.7h0.3L310.2,600.1z M307.4,579l14.3,7.8l0.3,1c0,0.2-0.1,0.6-0.3,1l-14.3,7.8c-1.8,1.1-3.5,1.1-5.1,0
		l-13.6-7.8h-0.7c-0.2-0.5-0.3-0.8-0.3-1l0.3-1l14.3-7.8C303.9,578.1,305.6,578.1,307.4,579z M310.2,574.2l13.2-7.8
		c2-0.7,4-0.6,5.8,0.3l14.6,7.8c0,0.7-0.3,1.1-1,1.4l-13.9,7.8c-1.6,1.1-3.4,1.1-5.4,0l-13.2-7.8c-0.7-0.2-1.1-0.7-1.4-1.4
		c0.2,0,0.6-0.1,1-0.3H310.2z M297.6,559.6l12.9,8.5c0.5,0,0.8,0,1,0c-0.2,0.5-0.6,0.7-1,0.7L285,583.4v0.3c-1.4,0.7-3,0.7-4.8,0
		l-13.6-8.1c-0.7-0.2-1-0.6-1-1l1-0.3l25.1-14.6C293.4,559,295.3,559,297.6,559.6z M293.5,544.7c0.5,0.2,0.8,0.3,1,0.3l5.4,3.4
		c0.5,0.2,0.7,0.4,0.7,0.7c0,0.2-0.2,0.3-0.7,0.3l-13.9,7.8c-1.8,1.4-3.7,1.4-5.8,0h0.3l-5.4-3.1c-0.2,0-0.3-0.1-0.3-0.3l14.9-8.8
		C291.1,544.1,292.4,544,293.5,544.7z M331.5,562c0.2,0,0.4-0.1,0.7-0.3l13.9-8.2c1.8-0.9,3.6-0.9,5.4,0l13.6,8.2
		c0.5,0.2,0.8,0.3,1,0.3c-0.2,0.2-0.6,0.3-1,0.3l-13.6,8.5c-1.8,0.9-3.6,0.9-5.4,0l-13.9-8.5C332,562.4,331.8,562.2,331.5,562z
		 M316.9,565.1c-1.1,0.2-2.4,0-3.7-0.7l-13.2-8.2c-0.9,0-1.4-0.1-1.4-0.3l0.7-0.7h0.7l13.2-8.1c1.4-0.4,2.6-0.6,3.7-0.3
		c0.4,0,0.9,0.1,1.4,0.3l13.9,8.1c0.2,0.5,0.7,0.7,1.4,0.7c-0.7,0.2-1.1,0.3-1.4,0.3l-13.9,8.2C317.8,564.6,317.4,564.8,316.9,565.1
		z M317.6,531.8l5.1,3c0.9,0.2,1.5,0.3,1.7,0.3c-0.2,0-0.6,0.2-1,0.7l-13.9,7.8v0.3c-1.6,0.9-3.4,0.9-5.4,0l-6.4-3.7l15.3-8.5
		c1.1-0.5,2.3-0.6,3.4-0.3c0.4,0,0.7,0.1,0.7,0.3H317.6z M341,534.2L355,542c0.5,0.4,0.9,0.7,1.4,0.7c-0.4,0.2-0.9,0.6-1.4,1
		l-13.6,7.5c-2,1.4-3.9,1.4-5.8,0l-13.2-7.5c-0.7-0.5-1-0.8-1-1l0.7-0.7h0.3l13.2-7.8h-0.3C337.3,533,339.2,533,341,534.2z
		 M341.4,517.9l5.1,3.4c0.4,0.2,0.9,0.5,1.4,0.7c-0.4,0.2-0.8,0.4-1,0.7l-14.3,8.2c-0.4,0.2-0.9,0.4-1.4,0.7c-1.1,0-2.4-0.2-3.7-0.7
		l-4.1-3.1l-0.7-0.3v0.3c-0.7-0.5-1-0.8-1-1l14.9-8.8c1.1-0.7,2.5-0.8,4.1-0.3C340.9,517.8,341.2,517.9,341.4,517.9z M331.2,457.4
		v-0.7h0.7L331.2,457.4z M366.2,516.9l15.3-8.8c1.4-1.1,2.9-1.1,4.7,0l13.9,7.5l0.3,1.4c0,0.2-0.1,0.4-0.3,0.7l-13.9,7.8
		c-1.8,0.9-3.4,0.9-4.7,0l-14.3-7.8C366.5,517.3,366.2,517.1,366.2,516.9z M351.6,516.9v0.3l-5.4-3.7l-1-0.3l1-0.7h0.3l13.2-8.1
		c1.8-0.7,3.3-0.8,4.4-0.3h1l5.4,3.4l0.7,0.7c0,0.2-0.2,0.3-0.7,0.3l-13.6,8.5C355,517.5,353.1,517.5,351.6,516.9z M363.8,521.3
		l13.6,7.8l1,0.7l-1,0.3l-13.6,7.8c-2,1.4-3.7,1.6-5.1,0.7l-13.9-7.8v0.3c-0.4-0.7-0.7-1.1-0.7-1.4l0.7-0.7l13.9-7.8
		C360.1,520.4,361.7,520.4,363.8,521.3z M383.5,490.7c1.4-0.4,2.7-0.6,4.1-0.3c0.4,0,0.7,0.1,0.7,0.3l5.8,3.4
		c0.2,0.2,0.5,0.3,0.7,0.3c-0.2,0.2-0.5,0.6-0.7,1v-0.3l-14.3,8.1c-1.6,1.1-3.1,1.1-4.4,0l-6.4-3.4l0.3-0.3L383.5,490.7z
		 M417.8,480.2c0.2,0.2,0.6,0.3,1,0.3c-0.4,0.5-0.8,0.7-1,0.7l-14.3,8.1c-2,1.1-3.7,1.1-5.1,0h0.3l-5.1-3.1l-0.3-0.3v0.7l-0.7-0.7
		c0-0.2,0.2-0.7,0.7-1.4l13.6-7.5h-0.3c2-0.9,3.5-1,4.4-0.3c0.7,0.2,1.1,0.3,1.4,0.3L417.8,480.2z M435.1,601.1c0.4,0,0.9,0,1.4,0
		c-0.4,0.7-0.9,1.1-1.4,1.4l-13.2,8.1v0.3c-2,0.7-3.8,0.7-5.4,0v-0.3l-4.7-3c-0.7-0.2-1-0.7-1-1.4l14.6-7.8c1.8-1.1,3.5-1.1,5.1,0
		L435.1,601.1z M447.3,576.3l14.3,7.5l0.3,0.7c0,0.2-0.2,0.4-0.7,0.7l-19,10.9c-1.8,1.1-3.5,1.1-5.1,0l-13.6-7.8v0.7l-1-0.7l1-1
		l18.7-10.9C443.8,574.9,445.5,574.9,447.3,576.3z M424.6,562.4l13.9,8.5l0.3,0.3c0,0.2-0.1,0.3-0.3,0.3l-13.9,8.2
		c-1.8,1.1-3.5,1.1-5.1,0l-14.9-8.2c0-0.2,0.4-0.5,1.4-0.7l13.6-8.5C421.1,561.2,422.8,561.2,424.6,562.4z M427.6,552.5l-14.3,7.8
		c-1.8,1.1-3.5,1.2-5.1,0.3v-0.3l-13.9-7.8v0.3c-0.4-0.4-0.7-0.8-0.7-1l14.6-8.1c1.6-1.1,3.3-1.1,5.1,0l14.3,7.5
		c0.2,0.5,0.4,0.7,0.7,0.7C428.1,552.1,427.8,552.3,427.6,552.5z M450,539.6l-13.9,7.8c-0.9,0.7-1.9,1-3.1,1c-0.4-0.2-1.1-0.6-2-1
		l-13.9-7.8v0.3c-0.9-0.5-1.4-0.8-1.4-1l15.3-8.8c0.9-0.2,1.6-0.5,2-0.7c1.1,0,2.2,0.2,3.1,0.7l13.9,7.8l1,1c0,0.2-0.3,0.6-1,1
		V539.6z M460.9,558.6l-13.9,7.8v0.3c-1.6,0.9-3.4,0.9-5.4,0h0.3L428,559c-0.2-0.2-0.3-0.6-0.3-1c0-0.5,0.1-0.8,0.3-1l13.9-7.5h-0.3
		c2-0.7,3.8-0.7,5.4,0l14.3,7.8h0.7C461.9,557.7,461.6,558.2,460.9,558.6z M469.7,536.5l13.9,7.8l0.3,0.7l-0.7,0.3l-13.6,8.1
		c-2,0.9-3.8,0.9-5.4,0l-13.3-8.1l-1.4-0.3l0.7-0.7h0.7l13.3-8.1C465.9,535.3,467.7,535.4,469.7,536.5z M471.8,531.8
		c0.4,0,1-0.2,1.7-0.7L487,523c1.4-0.7,3.2-0.7,5.4,0l13.6,8.1c0,0.5,0.1,0.7,0.3,0.7c-0.2,0.2-0.3,0.4-0.3,0.7v-0.3l-13.6,8.1
		c-2.3,1.1-4.2,1.1-5.8,0l-13.2-8.1C472.8,532.1,472.2,532,471.8,531.8z M459.2,517.5l14.3,8.5l-0.7,0.7v-0.3l-13.6,8.2
		c-2.3,0.9-4.1,0.9-5.4,0l-13.6-8.2c-0.9-0.2-1.4-0.4-1.4-0.7l1-0.7l13.6-7.5C455,516.2,456.9,516.2,459.2,517.5z M422.5,503.9
		l-13.9,8.5c-1.8,0.9-3.5,0.9-5.1,0l-14.3-8.5v0.3l-0.3-0.7l0.3-0.3h1l13.3-8.1c1.6-1.1,3.3-1.1,5.1,0l13.9,8.1
		c0.7,0.2,1.1,0.3,1.4,0.3c-0.2,0-0.7,0.2-1.4,0.7V503.9z M433,522.6l0.7,0.3l-14.3,8.5c-2.5,1.4-4.3,1.5-5.4,0.3l-13.6-8.2h-0.3
		c-0.5-0.4-0.9-0.8-1.4-1c0.4,0,1,0,1.7,0l13.6-7.8c1.1-1.1,2.9-1.1,5.4,0l13.2,7.8H433z M441.9,501.2l13.9,8.1
		c0,0.5,0.2,0.7,0.7,0.7l-14.9,8.5c-1.8,0.9-3.5,0.9-5.1,0l-13.9-8.5h-0.7l14.6-8.8C438,500.5,439.8,500.5,441.9,501.2z
		 M445.3,496.5l13.9-8.5c1.8-0.5,3.5-0.5,5.1,0l13.6,8.5c0.4,0.5,0.9,0.7,1.4,0.7c-0.5,0-0.9,0.2-1.4,0.7v-0.7l-13.6,8.1
		c-1.6,0.9-3.3,0.9-5.1,0l-13.9-8.1h-0.7v-0.7H445.3z M445.3,491l-13.9,8.5c-1.8,0.7-3.7,0.7-5.8,0h0.7l-13.9-8.5v0.7
		c-0.4-0.4-0.7-0.8-0.7-1c0-0.2,0.2-0.4,0.7-0.7l13.9-8.2c1.6-0.9,3.3-0.9,5.1,0l13.9,8.2c0.4,0.2,0.9,0.3,1.4,0.3
		C446.2,490.6,445.7,490.8,445.3,491z M435.1,463.9l5.4,2.7l1,1l-1,0.3l-12.9,7.8c-2.3,1.6-4.3,1.7-6.1,0.3l0.3,0.7l-6.1-3.7v-0.3
		h-0.3c0-0.2,0.3-0.6,1-1l13.6-7.8c1.6-0.4,3-0.6,4.4-0.3C434.6,463.8,434.9,463.9,435.1,463.9z M468.4,478.1l-13.9,7.8
		c-2.3,1.4-4.3,1.4-6.1,0h0.7l-14.3-7.8h-1c0-0.5,0.4-0.8,1.4-1L449,469h-0.7c1.8-0.9,3.6-0.9,5.4,0l14.3,8.1L468.4,478.1z
		 M457.5,450.3c0.5,0,0.9,0,1.4,0l5.4,3.4c0.2,0,0.4,0,0.7,0c-0.2,0.5-0.4,0.8-0.7,1l-14.3,7.8c-1.8,0.9-3.6,0.9-5.4,0l-4.1-3.1
		h-0.7c-0.7,0-1-0.2-1-0.7l14.6-8.5C454.8,449.4,456.1,449.4,457.5,450.3z M517.9,506c0-0.5,0.1-0.7,0.3-0.7l13.9-8.1
		c1.6-0.7,3.3-0.7,5.1,0l13.6,8.1c0.7,0.5,1.1,0.7,1.4,0.7c-0.2,0-0.7,0.2-1.4,0.7v-0.3l-13.6,8.5c-1.8,0.4-3.5,0.4-5.1,0l-14.3-8.5
		V506z M495.2,518.9c0-0.2,0.1-0.6,0.3-1l13.9-7.8c1.6-1.1,3.4-1.1,5.4,0l13.9,7.8c0,0.4,0.1,0.8,0.3,1c-0.2,0.4-0.3,0.8-0.3,1
		l-14.3,7.5v0.3c-1.8,0.9-3.5,0.9-5.1,0l-13.9-7.8C495.3,519.7,495.2,519.3,495.2,518.9z M495.5,513.5l-14.2,7.8v0.3
		c-1.8,0.7-3.4,0.7-4.8,0l-14.6-8.1c0-0.2-0.1-0.6-0.3-1h0.3l14.3-8.5c1.6-0.7,3.3-0.7,5.1,0l14.2,8.5h0.7
		C495.7,512.9,495.5,513.2,495.5,513.5z M501.3,483.9c0,0.2-0.2,0.4-0.7,0.7l-13.9,8.1c-1.8,1.1-3.5,1.1-5.1,0l-13.6-8.1
		c-0.9-0.2-1.4-0.4-1.4-0.7s0.4-0.5,1.4-0.7l13.6-8.1c1.6-0.9,3.3-0.9,5.1,0l13.9,8.1L501.3,483.9z M507.4,488
		c-0.9-0.5-1.4-0.9-1.4-1.4c0-0.5,0.5-0.7,1.4-0.7l13.9-7.8c1.6-0.9,3.3-0.9,5.1,0l13.9,7.8c0.4,0,0.8,0,1,0c-0.2,0.9-0.6,1.5-1,1.7
		l-13.9,7.8c-1.8,1.1-3.5,1.1-5.1,0l-13.9-7.8V488z M518.3,500.2h-0.3l-14.3,8.2c-1.6,1.1-3.2,1.1-4.8,0l-14.3-8.2v0.3
		c-0.4-0.2-0.7-0.5-0.7-0.7l14.9-8.8c1.6-0.7,3.2-0.7,4.8,0l14.3,8.5C517.9,500,518,500.2,518.3,500.2z M490.4,465.2l-13.9,7.8
		c-0.7,0.2-1.4,0.4-2,0.7c-0.9,0-1.8-0.2-2.7-0.7l-14.3-7.8v0.7c-0.4-0.7-0.7-1.1-0.7-1.4l14.9-8.8c0.9-0.4,1.8-0.6,2.7-0.3
		c0.7,0,1.4,0.1,2,0.3l13.9,8.1c0.2,0.5,0.6,0.7,1,0.7c-0.4,0.2-0.8,0.7-1,1.4V465.2z M513.9,451.6c-0.2,0-0.6,0.1-1,0.3l-13.2,7.5
		c-2.3,1.4-4.2,1.7-5.8,1v-1l-13.6-7.5v0.3l-1-0.7l14.6-8.5c1.6-1.1,3.3-1.1,5.1,0l13.9,7.8C513.3,451.4,513.6,451.6,513.9,451.6z
		 M523.4,471.3l-13.9,8.1c-2.3,1.1-4,1.3-5.1,0.3l-13.6-8.1c-1.1-0.2-1.7-0.5-1.7-0.7l15.3-8.5c1.1-0.9,2.8-0.9,5.1,0l14.3,8.5
		L523.4,471.3z M546.4,457.7l-0.7,0.7l-13.9,7.8c-2,1.1-3.6,1.1-4.8,0l-15.3-8.5l1-1l14.2-7.8c1.1-0.9,2.7-0.9,4.8,0l13.9,7.8
		L546.4,457.7z M573.6,519.9l-103.5,59.8c-1.4,1.1-2.9,1.1-4.8,0l-12.9-8.2H451l1-0.7l103.2-59.8c1.6-0.7,3.2-0.7,4.8,0l13.9,7.5
		l1,1C575,519.8,574.5,519.9,573.6,519.9z M588.9,494.4l13.9,8.2c0,0.4,0.2,0.7,0.7,0.7c-0.5,0-0.8,0.1-1,0.3l-13.6,8.1
		c-2,1.1-3.8,1.1-5.4,0l-14.6-8.5l14.6-8.5C585.1,493.9,586.8,493.8,588.9,494.4z M588,433.8c0.6-2.7,0.8-4.9,0.8-6.6
		c1.6,0,3.3-0.6,5.1-1.7c0.4,0.7,1.2,1,2.4,1c1.4,0,3-0.7,4.8-2.2l0.7,0.5l1,0.3c0,0.2-0.1,0.4-0.3,0.7L588,433.8z M525.1,424.8
		l14.3-8.1H539c1.6-0.7,3.4-0.7,5.4,0l13.9,8.1l0.3,0.7c0,0.2-0.1,0.3-0.3,0.3l-13.9,8.5c-2,0.7-3.7,0.7-5.1,0l-14.3-8.5
		c-0.7,0-1-0.1-1-0.3C524,425.3,524.4,425,525.1,424.8z M567.2,436.2l-8.5-4.6c-0.2,0-0.6-0.2-1-0.7c0.5,0,0.8,0,1,0l21.4-12.2
		c0,0.4,0,0.9,0,1.4c0,0.2,0,0.5,0,0.7C576.6,423.2,572.3,428.3,567.2,436.2z M563.6,441.3c-2.6,4-4.9,7.7-6.8,11.1l-2.2,1.4
		c-1.6,0.7-3.3,0.7-5.1,0l-13.9-8.5c-0.7,0-1-0.1-1-0.3l1-1l13.9-7.5c1.8-0.9,3.5-0.9,5.1,0L563.6,441.3z M553.1,459.1
		c-0.4,0.6-0.7,1.2-1,1.8c-0.1-0.1-0.2-0.3-0.2-0.5l0.3-1L553.1,459.1z M547.8,475.4c-0.2,0.4-0.3,0.9-0.3,1.4l1.4,4.8
		c0.2,0.2,0.4,0.5,0.7,0.7c-2.5,1.1-4.4,1.4-5.8,0.7v-0.7l-13.6-7.8v0.3l-1.4-1c0-0.2,0.4-0.5,1.4-1l13.6-7.5c1.4-0.9,3.3-0.9,5.8,0
		l0.5,0.3c-0.2,0.5-0.4,0.9-0.5,1.4C547.9,470.3,547.4,473.2,547.8,475.4z M553.7,484.7c2.3,0.8,5.1,1.2,8.7,1.2c0.2,0,0.4,0,0.7,0
		l11.9,6.8c0,0.2-0.5,0.5-1.4,0.7l-13.6,7.8c-1.6,0.9-3.2,1-4.8,0.3c-0.2-0.2-0.4-0.3-0.7-0.3l-13.6-7.8c-0.4-0.2-0.8-0.5-1-0.7
		c0.2,0,0.5-0.2,0.7-0.7h0.3L553.7,484.7z M572.3,485.1c7.6-1.2,14.6-3.9,21-8.1l3.4,1.9c0.2,0.7,0.5,1,0.7,1
		c-0.2,0.2-0.6,0.3-1,0.3l-14.3,7.8c-1.6,1.4-3.2,1.5-4.8,0.3V488L572.3,485.1z M597.4,473.9c2.3-1.9,4.6-3.9,6.8-6.3
		c0.9-0.7,1.6-1.4,2-2c0.6,2.6,1,5.1,1.4,7.7l-3.1,1.9c-1.8,1.4-3.5,1.4-5.1,0L597.4,473.9z M608.2,481c0.3,6.1,0,12.2-1,18.3
		c-0.3-0.1-0.7-0.3-1-0.5l-14.3-8.2l-0.3-0.3l0.3-1l14.3-7.5C606.9,481.4,607.6,481.1,608.2,481z M580.1,413.3l-13.2,7.8
		c-1.8,0.7-3.5,0.7-5.1,0l-13.9-8.2v0.3c-0.9-0.4-1.4-0.8-1.4-1l15.3-8.2c0.5-0.5,0.8-0.7,1-0.7c1.4-0.5,2.7-0.2,4.1,0.7l13.2,7.5
		c0,0.4,0,0.9,0,1.4V413.3z M502.6,438.1l13.9-8.5c1.4-0.7,2.9-0.7,4.8,0l14.3,8.5c0.7,0,1,0.2,1,0.7l-1,0.3l-13.9,7.5
		c-2,1.4-3.7,1.6-5.1,0.7l-13.9-8.1c-0.4,0-0.7-0.1-0.7-0.3C502,438.3,502.2,438.1,502.6,438.1z M510.1,417.3l13.9-7.8
		c1.6-0.7,2.9-0.7,4.1,0h0.7l6.5,3.1l0.3,0.7c0,0.2-0.1,0.4-0.3,0.7v-0.3l-14.3,8.1c-2,1.4-3.7,1.4-5.1,0l-6.5-3.7L510.1,417.3z
		 M552.9,395.9l5.4,3.4c0.2,0.2,0.6,0.3,1,0.3c-0.5,0-0.8,0.2-1,0.7V400l-13.6,8.2c-1.8,0.9-3.6,0.9-5.4,0h0.3l-6.5-3.7
		c0-0.2,0.3-0.3,1-0.3l13.6-8.1C549.6,395,551.3,395,552.9,395.9z M482.3,436.7l5.1,2.7c0.7,0.7,1.1,1,1.4,1c-0.2,0-0.7,0.2-1.4,0.7
		l-12.9,7.8h-0.3c-1.8,0.9-3.7,0.9-5.8,0l-5.1-2.7v0.3c-0.9-0.4-1.4-0.9-1.4-1.3l15.3-8.5h-0.3c1.6-0.4,3.1-0.6,4.4-0.3
		C481.5,436.4,481.8,436.5,482.3,436.7z M486.4,431.6l14.9-8.8c1.1-0.7,2.4-0.7,3.7,0c0.5,0,0.8,0,1,0l5.1,3
		c0.5,0.5,0.9,0.7,1.4,0.7c-0.5,0-0.9,0.1-1.4,0.3l-13.2,8.5c-1.6,1.1-3.3,1.1-5.1,0l-5.8-3.4L486.4,431.6"/>
	<path class="st3" d="M656.6,660l-20.6,11.9c-0.2-1.8-0.4-3.5-0.7-4.9c-0.2-1.7-0.4-3.6-0.7-5.4l20.7-12.1
		C655.8,653.1,656.2,656.6,656.6,660z M600.4,555.1c-3.3,0.7-7.1,2.2-11.2,4.6l-81.8,47.2c-0.5,0.2-0.9,0.5-1.4,0.7
		c-2.5,1.6-4.3,2.9-5.4,4.1c-4.1-2.3-2.3-5.8,5.4-10.5c0.5-0.4,0.9-0.8,1.4-1l81.8-46.9c5-2.9,9.4-4.6,13.1-5.1l0.2,0.3
		C601.7,550.6,601,552.8,600.4,555.1z M584,399.5c-1,1.2-1.8,2.5-2.4,4.1l-26.3-15.1c-8.6-5.4-26.7-0.1-54.3,16L256.2,544.7
		c-10.2,5.9-17.8,11-22.7,15.3c-4.1,3.4-6.7,6.3-7.8,8.8c-2-3.2,0.6-7.8,7.8-13.9c5-4.3,12.5-9.4,22.7-15.3L501,399.3
		c27.6-15.9,45.7-21.3,54.3-16.3L584,399.5z M401.8,5c-9.7,1.4-21.9,6.3-36.7,14.9l-311,179.3c-35.1,20.6-48.7,40.6-40.7,60.1
		l112.7,280.2c3.4,7.9,8.8,12.7,16.3,14.3c-13.8,2-23-2.7-27.5-14.3L2.2,259.4c-7.9-19.5,5.6-39.5,40.4-60.1L354,20
		C374.8,7.7,390.7,2.8,401.8,5z M601.5,680.9c1,3,1.9,6.1,2.9,9.3L514.5,742c-14.9,8.6-28.3,14.5-40.1,17.7
		c-16.5,3.8-30.2,2.7-41.1-3.4l-273-157.6c-9.1-5.4-11.9-11.8-8.5-19c1.8,2.7,4.6,5.3,8.5,7.8L433,744.7h0.3
		c10.9,6.3,24.6,7.5,41.1,3.4c11.8-3.2,25.1-8.8,40.1-17L601.5,680.9z M799.2,566.3c0.8,3.3,1.7,6.7,2.5,10l-109.3,63v-0.2
		c-0.3-3.6-0.4-7.2-0.5-10.7L799.2,566.3"/>
	<path class="st4" d="M655.4,649.5l-20.7,12.1c-0.8-5.2-2.1-11-3.7-17.3c-1.1-5-0.8-9.7,1-14.3c2-4.7,4-9.4,6.1-14.1l15.3-8.7v4.8
		c0,0.7,0,1.2,0,1.7c0,10.4,0.6,21.3,1.7,32.6C655.2,647.4,655.3,648.4,655.4,649.5z M699.2,438.1l29.5,24.8l4.4,3.4
		c-7.9,9.1-16.2,17.8-24.8,26.1c-1.6,1.6-2.5,3.4-2.7,5.4c-0.5-0.5-0.9-0.9-1.4-1.4c-1.6-1.8-2.8-3.3-3.7-4.4
		c-1.6-2-3.2-3.4-4.8-4.1c-1.4-0.7-3.3-2.3-5.8-4.8c-0.7-1.1-1.5-1.9-2.4-2.4c-0.4-4.1,0-8,1.4-11.9c2-6.8,4.1-13.6,6.1-20.4
		c0.9-2.7,1.9-5.7,3.1-8.8l0.3-0.3c0-0.2,0.1-0.3,0.3-0.3C698.9,438.6,699,438.3,699.2,438.1z M697.5,507.3c1.1,0.9,2.3,1.8,3.4,2.7
		c2,1.8,4.3,2.4,6.8,1.7c2.5-0.7,4.4-2.1,5.8-4.4l0.3-0.3c2.7-0.7,5.3-1.5,7.8-2.4c11.5-5.5,22.6-11.8,33.3-19
		c2.3-1.6,4.4-3.3,6.5-5.1c1.8-1.6,3.1-3.7,3.7-6.4c0.2-1.1,0.5-2.2,0.7-3.1c0.2-4.3-1.1-8-4.1-11.2c-3.6-4.3-7.5-8.4-11.5-12.2
		c-0.3-0.3-0.7-0.7-1-1l37,21.4c-1.1,30,2.4,59.5,10.5,88.6c0.8,3.2,1.7,6.4,2.6,9.7l-107.3,62.2c-0.1-5.9,0.1-11.7,0.5-17.5
		c0.9-9.1,2.6-17.8,5.1-26.2c1.1-4.3,2.1-8.6,3.1-12.9c0.2-0.2,0.3-0.5,0.3-0.7c0-0.4,0-0.8,0-1c0.2-0.4,0.3-1,0.3-1.7l1.7-30.2
		c0-0.4-0.1-1-0.3-1.7c1.1-1.1,2.2-2.4,3.1-3.7C703.4,524,700.7,515.5,697.5,507.3z M173.3,547.4c5.4-2.3,11.2-5.2,17.3-8.8
		l140.6-81.2l0.7-0.7l169.4-97.8c4.3-2.3,8.3-4.6,11.9-7.1c26.5-12.2,47.8-13.8,63.8-4.8l49.1,28.4c0,0.2,0.1,0.3,0.2,0.5
		c1.4,3.2,2.9,5.8,4.8,7.8c3.4,5.2,4.8,7.8,4.1,7.8c1.6,5.2,0.2,10-4.1,14.3c-0.2,0-0.3,0.1-0.3,0.3c-1.6,0.9-3.1,1.9-4.4,3.1
		c0.9-3.2,1.6-7,2-11.5c0.7-5.2,1-9.3,1-12.2c-7.5-11.5-15.7-15.2-24.8-10.9c-8.8,4.3-12.1,9.6-9.8,16v0.3c-1.1,0.7-2.5,1.6-4.1,2.7
		c-2.7,2-4.4,3.6-5.1,4.8c-0.2,0-0.4,0.1-0.7,0.3c-0.3,0.3-0.6,0.6-0.8,0.8L555.3,383c-8.6-5-26.7,0.5-54.3,16.3L256.2,539.6
		c-10.2,5.9-17.8,11-22.7,15.3c-7.2,6.1-9.9,10.8-7.8,13.9c0.4,0.9,1.4,1.7,2.7,2.4l125.6,72c7,4.1,20.3,1.5,39.7-7.8
		c4.5-2.5,9.4-5.2,14.6-8.1l194.9-111.7c-0.1,0.3-0.2,0.7-0.3,1c-2,5.7-3.2,11.1-3.4,16.3c0,6,1,11.1,2.9,15.3
		c-3.7,0.5-8,2.2-13.1,5.1l-81.8,46.9c-0.5,0.2-0.9,0.6-1.4,1c-7.7,4.8-9.5,8.3-5.4,10.5l0.3,0.3l64.8,37.7
		c4.8,2.3,11.7,0.8,20.7-4.4l2.9-1.7c0.8,3.9,1.7,7.8,2.9,11.5c0.7,2,1.4,4.1,2,6.1c2.4,6.1,4.8,12.7,7.1,19.7l-86.9,50.3
		c-14.9,8.1-28.3,13.8-40.1,17c-16.5,4.1-30.2,2.9-41.1-3.4H433L160.4,587.5c-3.8-2.5-6.7-5.1-8.5-7.8
		C147.4,571.1,154.5,560.3,173.3,547.4"/>
	<path class="st5" d="M369.6,336.8c2.5-1.6,4.1-4,4.7-7.1c1.1-3.2,1.1-6.3,0-9.5c-1.1-2.7-3.3-4.8-6.4-6.1c-2.5-0.7-5-0.3-7.5,1
		c-2.9,1.6-5,3.8-6.1,6.8c-0.4,3.4-0.1,6.5,1,9.2c1.1,3.2,3,5.3,5.8,6.4C364,338.7,366.8,338.4,369.6,336.8z M179.1,412.6l45.8-25.5
		l-2-5.1l-45.8,25.5L179.1,412.6z M185.5,398.3l35.6-20.4l-2-5.1l-35.6,20.4L185.5,398.3z M171.3,395.9l45.5-25.8l-2-5.1l-45.5,25.8
		L171.3,395.9z M165.5,382l2,5.1l45.8-25.8l-2-5.1L165.5,382z M203.5,337.2l-45.8,25.5l2,5.1l45.8-25.8L203.5,337.2z M199.1,328
		l-61.5,34.7l2,5.1l61.4-34.6L199.1,328z M207.3,348.4l-35.6,20l2,5.1l35.7-20L207.3,348.4z M251.1,280.1c-2-5.2-5.3-8.6-9.9-10.2
		c-4.3-1.6-8.6-1.2-12.9,1c-4.3,2.5-7.1,6.3-8.5,11.5c-1.8,5.2-1.7,10.1,0.3,14.6c1.6,4.3,4.3,7.5,8.1,9.5c0.7,0.2,1.3,0.5,1.7,0.7
		c4.5,1.8,8.8,1.5,12.9-1c4.3-2.5,7.2-6.3,8.8-11.5C253.3,289.8,253.1,284.9,251.1,280.1z M275.9,301.5c1.8,4.8,5.2,8,10.2,9.9
		c4.1,1.8,8.3,1.5,12.6-1c4.1-2.5,7-6.3,8.8-11.5c1.4-5,1-9.8-1-14.6c-2-5-5.2-8.3-9.5-9.8c-4.5-1.8-9-1.4-13.3,1.4
		c-4.3,2.3-7.1,5.9-8.5,10.9C273.4,291.8,273.6,296.8,275.9,301.5z M263.3,306.6c-2.5,1.6-4.2,4-5.1,7.1c-0.9,3.2-0.8,6.2,0.3,9.2
		c1.1,3.2,3,5.2,5.8,6.1c2.7,1.1,5.5,0.9,8.5-0.7c2.5-1.4,4.2-3.7,5.1-7.1c0.9-3,0.8-6-0.3-9.2c-1.1-2.9-3.2-5-6.1-6.1
		C268.7,304.8,266,305,263.3,306.6z M155.3,193.9c-2.9,1.3-4.9,3.6-5.8,6.8c-0.7,3.2-0.5,6.2,0.7,9.2c1.4,2.9,3.4,5.1,6.1,6.5
		c2.5,0.9,5.3,0.4,8.5-1.4c2.3-1.4,3.7-3.6,4.4-6.8c1.4-3.2,1.4-6.2,0-9.2c-1.1-2.9-3.3-5-6.5-6.1
		C160.5,191.9,158,192.3,155.3,193.9z M288.8,223.4c-4.5,2.7-7.5,6.5-8.8,11.2c-1.6,5.2-1.4,10.3,0.7,15.3c1.8,4.7,5.1,8,9.8,9.8
		c4.3,1.6,8.5,1.2,12.6-1c4.3-2.5,7.4-6.3,9.2-11.5c1.6-5,1.4-9.9-0.7-14.6c-2.3-5-5.6-8.4-9.9-10.2
		C296.7,220.8,292.4,221.1,288.8,223.4z M304,197.6c-1.1-2.9-3.3-5-6.4-6.1c-2.7-0.9-5.3-0.7-7.8,0.7c-2.7,1.6-4.5,4.1-5.4,7.5
		c-0.9,2.9-0.8,5.9,0.3,8.8c1.4,3.2,3.4,5.2,6.1,6.1c2.7,1.1,5.4,0.9,8.1-0.7c2.7-1.4,4.3-3.6,4.8-6.8
		C305.3,203.7,305.4,200.5,304,197.6z M333.2,227.8c-1.6,5.2-1.3,10.2,1,14.9c1.8,4.8,5.1,8,9.9,9.8c4.1,1.8,8.3,1.5,12.6-1
		c4.5-2.5,7.6-6.2,9.2-11.2c1.4-5.2,1-10.2-1-14.9c-2.3-5-5.5-8.4-9.9-10.2c-3.6-1.4-7.2-1.2-10.9,0.3c-0.7,0.2-1.4,0.6-2,1
		C338,218.9,335,222.6,333.2,227.8z M365.5,172.1l39,98.5l48.2-26.8L413,145L365.5,172.1z M388.9,117.1l-46.2,25.8l2,5.1l46.2-26.2
		L388.9,117.1z M384.5,105.2l-35.6,20l2,5.1l35.6-20L384.5,105.2z M375.7,83.8L329.5,110l2,5.1l46.2-26.2L375.7,83.8z M380.8,93.7
		l-46.2,26.2l2.1,5.1l46.2-26.1L380.8,93.7z M396.4,29.5l9.8-5.4l0.7-0.3l0.3,0.3l116.5,292.1L139,537.2L22.2,244.5L396.4,29.5z
		 M305,95l61.4-34.3l-2-5.1L303,89.9L305,95z M338.3,98.8l35.6-20l-2.4-5.1l-35.3,20L338.3,98.8z M325.1,96l45.8-26.1l-2-5.1L323,91
		L325.1,96z M391.6,295.1h-0.3c-1.6,5.2-1.2,10.4,1,15.6c2,4.7,5.3,7.8,9.8,9.2c4.1,2,8.3,1.8,12.6-0.7c4.3-2.7,7.2-6.4,8.8-11.2
		c0.7-1.8,1-3.5,1-5.1l62.8,15.6l1.7,4.1l-28.2,16.3l-1.4-3.4c-0.2-0.4-0.7-1.1-1.4-2c-1.1,0-2-0.1-2.7-0.3
		c-0.7,0.2-1.1,0.7-1.4,1.4v0.3c0.2,0.2,0.3,0.4,0.3,0.7l2,5.8l-28.2,16.3l-1.4-3.1c-0.4-1.1-1-1.8-1.7-2c-0.7-0.4-1.3-0.7-1.7-0.7
		l-0.3,0.3c-1.1,0.2-1.6,0.7-1.4,1.4c0,0.2,0.1,0.6,0.3,1l1.7,4.8c0.2,0.2,0.2,0.3,0,0.3l0.7,0.3L396,376.2l-1.4-3.1
		c-0.2-0.7-0.7-1.2-1.4-1.7c-0.9-0.7-1.7-1-2.4-1c-0.7,0.2-1.1,0.6-1.4,1c0,0.7-0.1,1.4-0.3,2l2.7,5.1l-28.2,16.3l-1.4-3.4
		c-0.2-0.2-0.5-0.3-0.7-0.3c0-0.2-0.2-0.6-0.7-1c-0.9-0.9-1.8-1.1-2.7-0.7c-0.7,0.2-1,0.6-1,1c-0.5,0.2-0.5,0.8,0,1.7l1.7,5.8
		l-27.8,16l-1.4-3.4c-0.2-0.7-0.7-1.1-1.4-1.4c-0.9-0.7-1.6-0.9-2-0.7h-0.7c-0.2,0-0.6,0.3-1,1c0-0.2-0.1-0.2-0.3,0
		c0,0.4,0.2,0.9,0.7,1.4l1.7,5.8L299.3,433l-1.7-3.4c-0.2-0.7-0.6-1.1-1-1.3c-1.4-0.9-2.4-1.1-3.1-0.7c-0.4,0-0.9,0.2-1.4,0.7
		c0,0.2,0,0.6,0,1l2.4,5.8l-27.9,17l-1.7-3.7c-0.2-0.7-0.6-1.4-1-2c-1.1-0.2-1.7-0.2-1.7,0c-0.7,0-1.1,0-1.4,0l-0.7,0.7
		c-0.2,0-0.5,0.1-0.7,0.3c0,0.2,0,0.6,0,1l2.7,6.1L234.1,471l-1.4-3.7c-0.2-0.5-0.5-1-0.7-1.7c-1.1-0.4-1.9-0.7-2.4-0.7
		c-1.1,0-1.8,0.2-2,0.7c-0.2,0-0.1,0.2,0.3,0.7c-0.2,0.2-0.2,0.4,0,0.7l2.4,5.8l-28.5,16.6l-1.4-3.1c-0.2-0.7-0.4-1.1-0.7-1.4
		c-1.1-0.9-2.3-1.4-3.4-1.4c-0.7,0.5-1,0.9-1,1.4H195c0,0.2,0.1,0.6,0.3,1l2.4,5.8l-6.5,3.7l6.1,2.7l5.1-2.7c0.2,0,0.3,0.1,0.3,0.3
		l32.3-19.3h0.3l31.9-18.7c0.2-0.2,0.3-0.2,0.3,0l31.6-19h0.7l32.6-18.7h0.3l31.6-18.4V401l31.9-18.3c0.4,0,0.6-0.1,0.3-0.3
		l32.3-18.7c0-0.2,0.1-0.4,0.3-0.4l72-41.4l6.1,1.4l10.2-6.4l-11.9-3.1L399.1,50.5c-0.2-0.9-0.7-1.5-1.4-1.7
		c-0.4-0.2-0.9-0.3-1.4-0.3H395c-0.4,0.2-0.7,0.6-0.7,1c-0.7,0-0.9,0.2-0.7,0.7l6.1,14.9l-3.7,2c0,0.2,0,0.4,0,0.7
		c-0.5,0-0.8,0.1-1,0.3c0,0.2,0.1,0.3,0.3,0.3c-0.4,0.7-0.3,1.1,0.3,1.4c0,0.7,0.7,1.2,2,1.7v0.3c0.9,0.2,1.6,0.1,2-0.3l2-1
		l12.6,30.6l-4.1,1.7c0,0.4-0.2,1-0.7,1.7c-0.2,0-0.2,0.2,0,0.7l-0.3,0.3c0.5,0,0.7,0.1,0.7,0.3c0,0.7,0.8,1.3,2.4,1.7
		c0.9,0.5,1.6,0.5,2,0l2-1l12.2,30.2l-3.4,2.7h-0.7v0.3c-0.5,0.2-0.6,0.6-0.3,1c0,0.2,0.1,0.6,0.3,1c-0.2,0.4,0.4,0.9,2,1.4v0.3
		c1.1,0.2,1.9,0.2,2.4,0l2-1.4l12.2,30.9l-3.7,2c-0.2,0-0.3,0.2-0.3,0.7c-0.2,0.2-0.5,0.2-0.7,0v0.3c0,0.2-0.1,0.5-0.3,0.7
		c0.4,0.2,0.7,0.4,0.7,0.7c0,0.4,0.8,1,2.4,1.7c1.1,0.5,1.9,0.6,2.4,0.3l2.4-1.4l11.9,30.6l-3.7,2c0,0.2-0.1,0.5-0.3,0.7l-0.3,0.3
		c-0.2,0.2-0.4,0.6-0.7,1h0.3l-0.3,0.3c0.7,0.7,1.7,1.3,3,1.7c0,0.5,0.1,0.7,0.3,0.7c0.7,0,1.2-0.1,1.7-0.3l2-1l12.2,30.6l-3.4,2.4
		l-0.3-0.3c-0.5,0-0.7,0.3-0.7,1l-0.3,0.3c0,0.4,0.3,0.8,1,1c0.2,0.7,0.8,1.2,1.7,1.7c0.7,0.5,1.5,0.6,2.4,0.3l1.7-1.3l12.6,30.9
		l-3.7,1.7v0.3c-0.4,0-0.8,0.2-1,0.7v0.7c-0.2,0.2-0.1,0.6,0.3,1c0,0.4,0.8,1,2.4,1.7c0.7,0.2,1.4,0.2,2,0l2-1l10.9,26.8l-76.4-19.4
		c0-0.2,0-0.4,0-0.7c-2.3-4.5-5.6-7.8-9.9-9.9c-4.5-1.6-8.9-1.1-13.2,1.4c-1.1,0.9-2.4,1.9-3.7,3.1l-28.2-7.1c0.7,0,1.3-0.2,1.7-0.7
		c2.7-1.6,4.4-4,5.1-7.1c1.4-3.2,1.5-6.3,0.3-9.5c-1.1-2.9-3.4-5-6.8-6.1c-2.5-0.9-5-0.7-7.5,0.7c-2.9,1.8-4.9,4.2-5.8,7.1
		c-0.7,3.2-0.4,6.2,0.7,9.2c0.4,1.6,1.3,2.8,2.4,3.7l-12.6-2.7c-1.6-1.8-3.7-3.2-6.4-4.1c-3.4-1.6-6.9-1.6-10.5,0l-72-17.7
		c2.5-1.4,4.2-3.7,5.1-7.1c1.1-3.2,1-6.3-0.3-9.5c-1.1-3-3.2-4.9-6.1-5.8c-2.7-1.1-5.4-0.9-8.1,0.7c-2.5,1.6-4.3,4-5.4,7.1
		c-0.7,3.2-0.4,6.2,0.7,9.2c0.2,0.7,0.4,1.4,0.7,2l-146-36.3l-10.9,6.1l37.4,9.5c-0.9,1.1-1.6,2.5-2,4.1c-0.7,3.4-0.4,6.4,0.7,9.2
		c1.4,3.2,3.2,5.3,5.4,6.5c3.2,0.7,6.1,0.3,8.8-1c2.3-1.4,3.8-3.6,4.7-6.8c0.9-2.7,1.1-5.1,0.7-7.1l50.9,12.2
		c-2.3,1.4-3.8,3.4-4.7,6.1c-0.7,3.2-0.3,6.2,1,9.2c1.1,3.2,3.1,5.3,5.8,6.5c2.7,0.7,5.5,0.5,8.5-0.7c2.7-1.6,4.4-4,5.1-7.1
		c0.9-3.2,0.8-6.3-0.3-9.5l-0.3-0.3l112.4,27.5c-1.1,1.6-1.9,3.4-2.4,5.4c-1.6,5-1.4,10,0.7,14.9c2,4.7,5.3,8,9.8,9.9
		c4.3,1.6,8.6,1.2,12.9-1c4.1-2.5,7-6.2,8.8-11.2c0.9-3.8,1-7.4,0.3-10.5L391.6,295.1z M879.9,647.6c-5,2.5-10,3.1-14.9,1.7
		c-0.4-8.1-2-26.2-4.7-54c-3.4-33.1-5.1-49.7-5.1-49.9c0-1.9,0.1-3.7,0.2-5.6c0.2-4.5,0.6-8.9,1.4-13.3c0.6-3.8,1.4-7.5,2.4-11.2
		c0.9-3.6,2-7.2,3.2-10.7c-0.2,2.9,0.5,6.1,2,9.5c14,29,21.7,60.1,23.1,93.4c0.4,8.6-0.2,17.2-2,25.8
		C883.9,638.5,882.1,643.3,879.9,647.6z M854.4,644.9c-0.2-0.2-0.3-0.4-0.3-0.7l0.3,12.2c5.9,14.9,5.3,29.4-1.7,43.5
		c-0.2,0.9-0.8,1.6-1.7,2l-18.7-0.7c-19.9-5-29.7-16-29.2-32.9c0-0.7,0.4-1.5,1-2.4c8.1-14.5,10.1-32.2,5.8-53
		c-2.5-12.2-5.2-24.5-8.1-36.7c-0.9-3.4-1.7-6.7-2.5-10c-0.9-3.2-1.7-6.5-2.6-9.7c-8.2-29.1-11.7-58.7-10.5-88.6
		c0.1-4.1,0.4-8.2,0.7-12.2c0.7-5.7,1.4-11.2,2-16.6c7.2,3.2,18.2,3.7,32.9,1.7c14.7-2,31.4-13.2,49.9-33.6l16.3-19.4
		c4.1,8.8,5.1,18.2,3.1,28.2c-0.9,3.4-1.5,6.8-1.7,10.2l-17.6,14.3c-17.2,14.7-27.4,27.8-30.6,39.4c-1.9,6.4-3.2,12.2-4.1,17.5
		c-0.9,5-1.3,9.4-1.3,13.4c0,8.9,1.2,19.5,3.6,31.8c0.4,1.8,0.8,3.7,1.2,5.6c0.3,1.3,0.7,2.8,1,4.4c2,8.1,4.4,19.2,7.5,33.3
		c0.7,3.6,2.2,18.9,4.4,45.9C853.6,636.6,854,641,854.4,644.9"/>
	<path class="st6" d="M275.9,301.5c-2.3-4.7-2.5-9.7-0.7-14.9c1.4-5,4.2-8.6,8.5-10.9c4.3-2.7,8.7-3.2,13.3-1.4
		c4.3,1.6,7.5,4.9,9.5,9.8c2,4.8,2.4,9.6,1,14.6c-1.8,5.2-4.8,9.1-8.8,11.5c-4.3,2.5-8.5,2.8-12.6,1
		C281.1,309.6,277.7,306.3,275.9,301.5z M207.9,249.9l0.3,0.3c1.1,3.2,1.2,6.3,0.3,9.5c-0.7,3.2-2.4,5.6-5.1,7.1
		c-2.9,1.1-5.8,1.4-8.5,0.7c-2.7-1.1-4.6-3.3-5.8-6.5c-1.4-2.9-1.7-6-1-9.2c0.9-2.7,2.5-4.7,4.7-6.1c0.5-0.4,0.9-0.8,1.4-1
		c2.5-1.4,5-1.6,7.5-0.7C204.8,245.3,206.8,247.2,207.9,249.9z M256.8,253c-2.7,1.4-5.6,1.6-8.5,0.7c-1.8-0.9-3.5-2.3-5.1-4.1
		c-0.2-0.7-0.5-1.4-0.7-2c-1.1-2.9-1.4-6-0.7-9.2c1.1-3.2,2.9-5.5,5.4-7.1c2.7-1.6,5.4-1.8,8.1-0.7c2.9,0.9,5,2.8,6.1,5.8
		c1.4,3.2,1.5,6.3,0.3,9.5C261,249.2,259.3,251.6,256.8,253z M368.2,280.1c-2.3,0.9-4.4,0.9-6.5,0c-1.4-0.7-2.5-1.6-3.4-2.7
		c-1.1-0.9-1.9-2.1-2.4-3.7c-1.1-2.9-1.4-6-0.7-9.2c0.9-2.9,2.8-5.3,5.8-7.1c2.5-1.4,5-1.6,7.5-0.7c3.4,1.1,5.7,3.2,6.8,6.1
		c1.1,3.2,1,6.3-0.3,9.5c-0.7,3.2-2.4,5.5-5.1,7.1C369.5,279.9,368.9,280.1,368.2,280.1z M333.2,227.8c1.8-5.2,4.8-9,8.8-11.2
		c0.7-0.4,1.4-0.8,2-1c3.6-1.6,7.2-1.7,10.9-0.3c4.3,1.8,7.6,5.2,9.9,10.2c2,4.8,2.4,9.7,1,14.9c-1.6,5-4.6,8.7-9.2,11.2
		c-4.3,2.5-8.5,2.8-12.6,1c-4.7-1.8-8-5.1-9.9-9.8C332,238,331.7,233,333.2,227.8z M406.2,24.1l-3.1,1.3l9.5-5.4l119.2,297.2
		L141.1,541.6l-2-4.4l384.7-221.1L407.2,24.1l-0.3-0.3L406.2,24.1z M864.9,649.3c-1.1-0.2-2.3-0.5-3.4-0.7c-0.7-0.2-1.4-0.6-2-1
		h-0.7c-1.4-0.9-2.8-1.8-4.4-2.7c-0.4-3.8-0.8-8.3-1-13.2c-2.3-26.9-3.7-42.2-4.4-45.9c-3-14.1-5.5-25.2-7.5-33.3
		c-0.3-1.6-0.7-3.1-1-4.4c-0.4-1.9-0.8-3.8-1.2-5.6c-2.4-12.3-3.6-22.9-3.6-31.8c0-4,0.4-8.4,1.3-13.4c0.9-5.3,2.2-11.1,4.1-17.5
		c3.2-11.5,13.4-24.7,30.6-39.4l17.6-14.3l-7.1,30.6c-4.3,13.4-10.3,26.5-18,39.4c-0.2,0.4-0.5,0.9-0.7,1.4v0.3l-1,3.4
		c-0.2,0.9-0.3,2-0.3,3.4c-1.3,3.5-2.3,7.1-3.2,10.7c-1,3.7-1.8,7.4-2.4,11.2c-0.7,4.3-1.2,8.8-1.4,13.3c-0.1,1.9-0.2,3.7-0.2,5.6
		c0,0.2,1.7,16.9,5.1,49.9C862.9,623.1,864.5,641.2,864.9,649.3"/>
	<path class="st7" d="M624.2,361.3c0-1.6,0-3.4,0-5.4c0-1.8,0.2-3.5,0.7-5.1c0.7,1.8,1.8,3.7,3.4,5.8c5.4,6.8,13.4,10.3,23.8,10.5
		l0.7,0.7c-0.5,0.9-0.9,2.8-1.4,5.8c-0.7,2.7-1.8,4.2-3.4,4.4c-2.3-5-7-9.2-14.3-12.6L624.2,361.3z M858.8,205.4
		c-5.7,4.1-13.9,6.1-24.8,6.1c-13.1,0-22.9-2.9-29.2-8.8c-2.7-2.7-5.1-4.8-7.1-6.1c0.2-10,9.4-14,27.5-12.2
		C842.6,185.7,853.8,192.7,858.8,205.4z M807.2,227.5c-1.1-2.5-2.2-4.8-3.1-6.8c0-1.1-0.2-2.3-0.7-3.4c8.4,4.3,20.4,6.5,36,6.5
		c7.7,0,15.3-1.8,22.7-5.4c0,1.6,0,3.2,0,4.7l-0.3,0.3c-9.3,5.7-19.8,8.5-31.6,8.5c-12.2-3.2-19.3-4.8-21.4-4.8
		C808,227.1,807.4,227.3,807.2,227.5z M660.2,400c0-1.1,0-2.3,0-3.4h-1.4c0.4-0.6,0.8-1.2,1-1.9c0.1-0.3,0.3-0.8,0.3-1.2
		c1.8-13.4,8.3-23.7,19.4-30.9c0.4,0,1-0.2,1.7-0.7h-0.3l2.4-1c6.1,8.6,10.5,17.9,13.2,27.8c0.5,2,0.8,4.2,1,6.5l-0.3,4.8
		c-0.9,4.9-2.8,9.4-5.4,13.4c-0.5,0.7-1.1,1.5-1.7,2.2c-1.6,2.3-3,4.4-4.1,6.5c1.4-3.4,2.6-6.7,3.6-10c0.4-1.5,0.8-3.1,1.2-4.6
		c2.5-10.6,0.8-20.7-5.1-30.2l-2,0.7c0.2,6.6-0.8,13.1-3.1,19.7c-0.8,2.6-1.6,5.2-2.4,7.8c-2.9,9.5-5.7,19.1-8.1,28.9
		c-6.6-10.2-9.9-21.4-9.9-33.6C660.2,400.5,660.2,400.2,660.2,400z M627.3,340.2c1.4-3.6,4-6.7,7.8-9.2c4.7-2.9,9.6-4.1,14.6-3.4
		c7.2,0,14,2.5,20.4,7.5c5.9,4.8,10,10.7,12.2,18c0,0.2,0,0.6,0,1h-6.5c-0.9,0.2-3.2,1.5-6.8,3.7c-0.7,0.2-1.2,0.5-1.7,0.7v0.3H667
		c-2.9,1.1-6.1,1.7-9.5,1.7c-10.6,0-19.1-4.2-25.5-12.6C630,344.7,628.4,342,627.3,340.2"/>
	<path class="st8" d="M369.6,336.8c-2.7,1.6-5.5,1.8-8.5,0.7c-2.7-1.1-4.7-3.3-5.8-6.4c-1.1-2.7-1.5-5.8-1-9.2
		c1.1-2.9,3.2-5.2,6.1-6.8c2.5-1.4,5-1.7,7.5-1c3.2,1.4,5.3,3.4,6.4,6.1c1.1,3.2,1.1,6.3,0,9.5C373.6,332.9,372,335.3,369.6,336.8z
		 M288.8,223.4c3.6-2.3,7.9-2.6,12.9-1c4.3,1.8,7.6,5.2,9.9,10.2c2,4.8,2.3,9.6,0.7,14.6c-1.8,5.2-4.9,9.1-9.2,11.5
		c-4.1,2.3-8.3,2.6-12.6,1c-4.8-1.8-8-5.1-9.8-9.8c-2-5-2.3-10.1-0.7-15.3C281.3,229.9,284.2,226.1,288.8,223.4z M549.5,482.2
		c-0.3-0.2-0.5-0.4-0.7-0.7l-1.4-4.8c0-0.4,0.1-0.9,0.3-1.4c0.5-1.9,2.1-4.7,4.9-8.3c1-1.2,2.1-2.6,3.4-4.1c2.7-3.1,6.1-6.6,10-10.7
		c0.8-0.8,1.6-1.6,2.4-2.4c7-6.8,13.5-12,19.4-15.6c6.6-4.3,12.6-6.6,18-6.8h0.3c4.3,0,7.4,1.5,9.3,4.6c0.7,1.1,1.2,2.4,1.5,3.9
		c0.7,2,0.9,4,0.7,6.1c0,0.8-0.2,1.6-0.3,2.4c0,1.2-0.2,2.5-0.5,3.9c-1.3,4.9-4.9,10.6-10.7,17.1c-0.5,0.7-1.1,1.4-2,2
		c-2.2,2.3-4.4,4.4-6.8,6.3c-1.3,1.1-2.7,2.1-4.1,3.1c-6.4,4.2-13.4,6.9-21,8.1c-2.9,0.5-6,0.8-9.2,0.8c-0.2,0-0.5,0-0.7,0
		c-3.5,0-6.4-0.4-8.7-1.2C552,484.1,550.5,483.3,549.5,482.2z M699.2,438.1c-0.2,0.2-0.3,0.6-0.3,1c-0.2,0-0.3,0.1-0.3,0.3l-0.3,0.3
		c-1.1,3.2-2.2,6.1-3.1,8.8c-2,6.8-4.1,13.6-6.1,20.4c-1.4,3.8-1.8,7.8-1.4,11.9c0.7,1.8,1.4,3.5,2,5.1c0.7,1.6,1,4.5,1,8.8
		c0.2,4.1,2.5,8.3,6.8,12.6c3.2,8.2,5.9,16.7,8.1,25.5c-0.9,1.4-1.9,2.6-3.1,3.7c-0.2,0.4-0.4,0.8-0.7,1v0.3c-0.2,0-0.4,0.1-0.7,0.3
		c-0.2,0.5-0.5,0.9-0.7,1.4c-6.3,10-17.8,17.4-34.3,22.4c-0.4,0.2-0.8,0.3-1,0.3c-5,1.6-10.4,2.6-16.3,3.1h-16.6
		c-2.9-0.2-5.6-0.6-8.1-1.2c-3.1-0.7-6-1.6-8.5-2.9c0.2-0.5,0.4-1,0.7-1.5c0.7-1.8,1.4-3.6,2-5.4c0.8-2.3,1.6-4.6,2.4-7
		c6.2-18.2,10.3-34.5,12.2-49.1c0.6-4.5,1-8.9,1.2-13.1c0.1-1.9,0.2-3.9,0.2-5.8c0-3.7-0.1-7.3-0.2-10.5c-0.1-3.9-0.4-7.4-0.7-10.7
		c-0.6-6.5-1.6-11.8-2.9-15.8c-0.1-0.3-0.2-0.6-0.3-1c-1.4-4.1-4.3-9.2-8.8-15.1c-0.4-0.6-0.8-1.2-1.3-1.9c-1.1-2.7-3.1-4.7-5.8-6.1
		c-0.1,0.1-0.2,0.1-0.3,0.2c0.4-0.3,0.9-0.7,1.4-1c2.5-2.2,5.1-4.1,7.8-5.9h0.3c7.9,0,17.7-2.6,29.2-7.8c2.7-1.1,5.2-2.4,7.5-3.7
		c0,0.2,0,0.5,0,0.7c0,12.2,3.3,23.4,9.9,33.6c0,0.2,0.2,0.4,0.7,0.7l1,1c0.9-0.4,2.3-0.9,4.1-1.4c1.8-0.2,3.2-0.8,4.1-1.7
		c1.1-2.9,2.9-6.5,5.4-10.5l0.3-0.3h0.3c1.1-2,2.5-4.2,4.1-6.5c0.6-0.7,1.1-1.5,1.7-2.2c2.7-4,4.5-8.5,5.4-13.4
		c0.4,1.1,1,2.5,1.7,4.1c2,5.7,3.2,9.9,3.4,12.6c0.2,0.8,0.3,1.8,0.3,3.1c0.1,2.4-0.3,5.6-1,9.8L699.2,438.1z M749.1,446.5
		c0.3,0.3,0.7,0.7,1,1c4.1,3.8,7.9,7.9,11.5,12.2c2.9,3.2,4.3,6.9,4.1,11.2c-0.2,0.9-0.4,1.9-0.7,3.1c-0.7,2.7-1.9,4.9-3.7,6.4
		c-2,1.8-4.2,3.5-6.5,5.1c-10.6,7.3-21.7,13.6-33.3,19c-2.5,0.9-5.1,1.7-7.8,2.4c0-2.3-1.1-4.1-3.4-5.4c-1.8-1.1-3.4-2.4-4.8-3.7
		c0.2-2,1.1-3.8,2.7-5.4c8.6-8.4,16.9-17.1,24.8-26.1l-4.4-3.4c0.2-0.4,0.4-0.9,0.7-1.4c0.5-1.6,0.7-4.4,0.7-8.5
		c0-6.2-0.7-12.4-2.2-18.7c-1.6-6.3-3.9-12.7-7-19c0.9,1.4,1.9,2.8,3.1,4.4C731.9,429.1,740.2,438,749.1,446.5"/>
	<path class="st9" d="M304,197.6c1.4,2.9,1.3,6.1-0.3,9.5c-0.4,3.2-2,5.4-4.8,6.8c-2.7,1.6-5.4,1.8-8.1,0.7
		c-2.7-0.9-4.8-2.9-6.1-6.1c-1.1-2.9-1.2-5.9-0.3-8.8c0.9-3.4,2.7-5.9,5.4-7.5c2.5-1.4,5.1-1.6,7.8-0.7
		C300.8,192.6,302.9,194.7,304,197.6z M588,433.8c-0.1,0.1-0.1,0.3-0.2,0.5c-5.9,3.6-12.3,8.8-19.4,15.6c-0.8,0.8-1.6,1.6-2.4,2.4
		c-4,4-7.3,7.6-10,10.7c-1.3,1.5-2.4,2.8-3.4,4.1c-2.8,3.6-4.4,6.4-4.9,8.3c-0.4-2.3,0.1-5.1,1.7-8.5c0.2-0.5,0.3-0.9,0.5-1.4
		c0.6-1.4,1.2-3,2-4.6c0.3-0.6,0.6-1.2,1-1.8c1-2.1,2.3-4.4,3.7-6.8c1.9-3.4,4.2-7.1,6.8-11.1c0.6-0.8,1.3-1.6,1.9-2.5
		c0.5-0.9,1.1-1.7,1.7-2.6c5.1-7.8,9.4-13,12.9-15.5c0.9-0.7,1.9-1.1,3.1-1.4c3.8-0.9,5.8,1.5,5.8,7.1c0,0.2,0,0.4,0,0.7
		C588.9,428.9,588.6,431.1,588,433.8z M424.6,302.9c0,1.6-0.3,3.3-1,5.1c-1.6,4.8-4.5,8.5-8.8,11.2c-4.3,2.5-8.5,2.7-12.6,0.7
		c-4.5-1.4-7.8-4.4-9.8-9.2c-2.3-5.2-2.6-10.4-1-15.6h0.3c1.1-3.4,2.7-6,4.8-7.8c1.4-1.1,2.6-2.2,3.7-3.1c4.3-2.5,8.7-2.9,13.2-1.4
		c4.3,2,7.6,5.3,9.9,9.9c0,0.2,0,0.5,0,0.7C424.3,296.5,424.8,299.7,424.6,302.9z M602.5,548.4l-0.2-0.3c-1.9-4.2-2.9-9.3-2.9-15.3
		c0.2-5.2,1.4-10.6,3.4-16.3c0.1-0.4,0.2-0.7,0.3-1c1.9-5.4,3.3-10.8,4.1-16.1c1-6.1,1.4-12.2,1-18.3c-0.1-2.6-0.3-5.2-0.7-7.8
		c-0.3-2.5-0.8-5.1-1.4-7.7c5.8-6.5,9.4-12.3,10.7-17.1c0.3-1.4,0.5-2.7,0.5-3.9c0.2-0.8,0.3-1.6,0.3-2.4c0.2-2.1,0-4.1-0.7-6.1
		c-0.4-1.5-0.9-2.8-1.5-3.9c-1.9-3-5-4.6-9.3-4.6h-0.3c0.2-0.2,0.3-0.5,0.3-0.7c1.1-1.6,2.2-3.1,3.1-4.4c0.7-0.5,1.4-1.2,2.2-1.9
		c0.1-0.2,0.3-0.3,0.5-0.5l1.4-1l0.3-0.2c0.1-0.1,0.2-0.2,0.3-0.3c0.1,0,0.2-0.1,0.3-0.2c2.7,1.4,4.7,3.4,5.8,6.1
		c0.5,0.6,0.9,1.3,1.3,1.9c4.5,6,7.5,11,8.8,15.1c0.1,0.4,0.2,0.7,0.3,1c1.3,4,2.3,9.3,2.9,15.8c0.3,3.3,0.5,6.8,0.7,10.7
		c0.1,3.3,0.2,6.8,0.2,10.5c0,1.9-0.1,3.8-0.2,5.8c-0.2,4.2-0.6,8.5-1.2,13.1c-2,14.6-6,30.9-12.2,49.1c-0.8,2.4-1.5,4.7-2.4,7
		c-0.7,1.9-1.3,3.7-2,5.4c-0.2,0.5-0.5,1.1-0.7,1.5c-3.6-1.6-6.6-3.7-9-6.5C605,553,603.6,550.9,602.5,548.4z M728.8,462.8
		l-29.5-24.8l2.4-8.5c0.7-4.2,1.1-7.5,1-9.8c0-1.3-0.1-2.3-0.3-3.1c-0.2-2.7-1.4-6.9-3.4-12.6c-0.7-1.6-1.2-2.9-1.7-4.1l0.3-4.8
		c2,0.7,4,1.5,5.8,2.4c5.7,2.7,10.2,6.7,13.6,11.9c1.4,1.8,2.7,3.7,4.1,5.8c3.1,6.4,5.4,12.7,7,19c1.5,6.2,2.2,12.5,2.2,18.7
		c0,4.1-0.2,6.9-0.7,8.5C729.2,461.9,729,462.4,728.8,462.8"/>
	<path class="st10" d="M670,434.3c2.5-9.8,5.2-19.4,8.1-28.9c0.8-2.6,1.5-5.2,2.4-7.8c2.3-6.6,3.3-13.1,3.1-19.7l2-0.7
		c5.9,9.5,7.6,19.6,5.1,30.2c-0.4,1.5-0.8,3.1-1.2,4.6c-1,3.3-2.2,6.6-3.6,10h-0.3l-0.3,0.3c-2.5,4.1-4.3,7.6-5.4,10.5
		c-0.9,0.9-2.3,1.5-4.1,1.7c-1.8,0.5-3.2,0.9-4.1,1.4l-1-1C670.3,434.8,670,434.5,670,434.3z M627.3,340.2c1.1,1.8,2.7,4.4,4.8,7.8
		c6.3,8.4,14.8,12.6,25.5,12.6c3.4,0,6.6-0.6,9.5-1.7c-1.4,1.1-2.3,2.6-2.7,4.4c-0.7,1.6-0.8,3.3-0.3,5.1c0.5,1.8,1.5,3.3,3.1,4.4
		c0.2-3.6,1.9-6.3,5.1-8.1c0-0.2,0.1-0.3,0.3-0.3c2-1.1,4.4-1.7,7.1-1.7c-11.1,7.2-17.6,17.5-19.4,30.9c-0.1,0.4-0.2,0.8-0.3,1.2
		c-0.3,0.7-0.6,1.3-1,1.9c-3.2,0.7-6.3,0.2-9.5-1.4c-0.9-0.4-1.9-1-3-1.7c-3.8-2.3-6.8-5.5-8.8-9.8c-0.1-0.7-0.3-1.4-0.3-2
		c-0.9-3.5-1.8-6.4-2.7-8.5c-2-3.8-4.7-6.1-8.1-6.8l-1-3.1v6.1l-1.4-1.4v-0.3l0.3-4.8c0-0.4,0-1,0-1.7l9.5,4.1
		c7.2,3.4,12,7.6,14.3,12.6c1.6-0.2,2.7-1.7,3.4-4.4c0.5-2.9,0.9-4.9,1.4-5.8l-0.7-0.7c-10.4-0.2-18.3-3.7-23.8-10.5
		c-1.6-2-2.7-4-3.4-5.8c0-0.2,0-0.6,0-1l1-5.4l0.3-0.3v-0.3h0.3v-0.3C626.6,342.2,626.8,341.1,627.3,340.2z M682.3,354.2
		c0,0.2,0,0.6,0,1c0,0.2,0,0.5,0,0.7l1,4.8v0.3l-2.4,1c-1.1-1.6-2.3-2.7-3.4-3.4c-1.8-1.4-3.7-1.8-5.8-1.4l-1.7,0.3
		c-0.2,0-0.6,0.1-1,0.3c3.6-2.3,5.9-3.5,6.8-3.7H682.3z M803.5,217.3c-1.6-4.1-3.3-8.2-5.1-12.2c-0.7-3.2-0.9-6-0.7-8.5
		c2,1.4,4.4,3.4,7.1,6.1c6.3,5.9,16.1,8.8,29.2,8.8c10.9,0,19.1-2,24.8-6.1c1.8,3.9,2.9,8.1,3.4,12.9c-7.5,3.6-15.1,5.4-22.7,5.4
		C823.8,223.8,811.8,221.6,803.5,217.3z M862.2,223.1c0,0.5,0,0.9,0,1.4c0,6.6-2,11.9-6.1,16c-2.7,5.4-6.3,8.9-10.9,10.5
		c-4.3,1.6-9.5,1.4-15.6-0.7c-0.7-0.2-1.4-0.5-2-0.7c-0.9-0.4-1.7-0.8-2.4-1l-2.7-14.6l-7.1-1.7l-0.3,9.8c-0.5-0.7-1-1.5-1.7-2.4
		c-1.8-3-3.5-6.1-5.1-9.5c-0.2-0.5-0.4-1-0.7-1.7c-0.2-0.2-0.3-0.6-0.3-1c0.2-0.2,0.8-0.3,1.7-0.3c2,0,9.2,1.6,21.4,4.8
		c11.8,0,22.3-2.8,31.6-8.5L862.2,223.1"/>
	<path class="st11" d="M624.9,350.8c-0.4,1.6-0.7,3.3-0.7,5.1c0,2,0,3.8,0,5.4c0,0.7,0,1.3,0,1.7l-0.3,4.8
		c-0.4-5.5-0.7-9.6-0.7-12.2c0-4.8,1-8.7,3.1-11.9v0.3l-0.3,0.3l-1,5.4C624.9,350.2,624.9,350.5,624.9,350.8"/>
	<path class="st12" d="M626.2,409.2c0,0.2-0.1,0.3-0.3,0.3c-0.9,0.4-1.8,1.1-2.7,2c-2.7,1.8-5.3,3.8-7.8,5.9c-0.5,0.3-0.9,0.7-1.4,1
		c-0.1,0.1-0.2,0.2-0.3,0.3l-0.3,0.2l-1.4,1c-0.2,0.2-0.3,0.3-0.5,0.5c-0.8,0.7-1.5,1.3-2.2,1.9c-2,0-3.7-0.4-5.1-1.4
		c0.2-0.5,0.3-0.9,0.3-1.3c0.2-2.3-0.8-3.4-3.1-3.4c-0.2,0-0.4,0.1-0.7,0.3c-0.2-0.5-0.3-0.8-0.3-1c-0.2-0.2-0.3-0.4-0.3-0.7
		c0.1-0.2,0.1-0.5,0.2-0.7c0.5-1.7,0.8-3.4,1-4.9c0.1-0.7,0.2-1.5,0.2-2.2c0.4-3.8-0.4-5.8-2.7-5.8c-0.2,0-0.9,0.3-2,1
		c-0.2-0.7-0.3-1.5-0.3-2.4c0.4-0.4,1-1.1,1.7-2c0.2-0.2,0.6-0.9,1-2c0.4-1.1,0.1-2.3-1-3.4c-0.9-0.7-1.8-0.7-2.7,0
		c-0.2-0.7-0.4-1.3-0.7-1.7v-0.3l0.3,0.3c1.1,0.5,4.1,1.1,8.8,2c1.4,0.2,2.7,0.5,4.1,0.7c7.2,1.1,14.4-1.6,21.4-8.1
		c0,2.9-0.3,7-1,12.2C627.8,402.2,627.1,406,626.2,409.2"/>
	<path class="st13" d="M598.1,384.4c3.6,4.1,8.3,5.9,13.9,5.4c5.9,0,9.9-2.4,11.9-7.1c-2.9-4.5-6.7-6.9-11.2-7.1
		c-5,0-9.4,1.9-13.3,5.8C599,381.8,598.5,382.8,598.1,384.4z M594.7,390.5c-2.3-6.3,1-11.7,9.8-16c9-4.3,17.3-0.7,24.8,10.9
		c-7,6.6-14.1,9.3-21.4,8.1c-1.4-0.2-2.7-0.5-4.1-0.7c-4.8-0.9-7.7-1.6-8.8-2L594.7,390.5"/>
	<path class="st14" d="M598.1,384.4c0.4-1.6,0.9-2.6,1.3-3.1c3.9-3.8,8.3-5.8,13.3-5.8c4.5,0.2,8.3,2.6,11.2,7.1
		c-2,4.8-6,7.1-11.9,7.1C606.3,390.3,601.7,388.5,598.1,384.4"/>
	<path class="st15" d="M657.8,751.9c0.9,0.9,2.4,1.4,4.4,1.4c0.2,0,0.6,0,1,0c-1.8,2-3.3,4.6-4.4,7.8c-0.5,1.4-1,3.3-1.7,5.8
		c-1.1,2.3-2,4.1-2.7,5.4c0.5-1.6,0.9-3.4,1.4-5.4c0.9-2,1.5-4.5,1.7-7.5c0-3.4,0-5.9,0-7.5H657.8z M580.1,411.6
		c0.1-3.1,0.6-5.7,1.5-8c0.6-1.6,1.4-2.9,2.4-4.1c0.3-0.3,0.6-0.6,0.8-0.8c0.2-0.2,0.4-0.3,0.7-0.3c0.7-1.1,2.4-2.7,5.1-4.8
		c1.6-1.1,2.9-2,4.1-2.7c0.2,0.5,0.5,1,0.7,1.7c-0.4,0-0.8,0.1-1,0.3c-1.8,2-3.2,4-4.1,5.8c-0.4,0.9-0.8,1.7-1,2.4
		c-0.1,0.5-0.1,0.9-0.2,1.4c-0.1,0.7-0.2,1.4-0.2,2v1.4h0.3c1.6,0,3.1-0.3,4.2-0.8c0.4-0.3,0.8-0.5,1.2-0.9c0.2-1.1,0.8-2.5,1.7-4.1
		c0,0.9,0.1,1.7,0.3,2.4c1.1-0.7,1.8-1,2-1c2.3,0,3.2,1.9,2.7,5.8c0,0.7-0.1,1.5-0.2,2.2c-0.2,1.5-0.5,3.2-1,4.9
		c0,0.2-0.1,0.4-0.2,0.7c0,0.2,0.1,0.5,0.3,0.7c0,0.2,0.1,0.6,0.3,1c-0.4,0.2-1,0.4-1.7,0.7l-0.3,0.7c-0.6,1.4-1.2,2.7-1.9,3.7
		c-0.9,1.6-1.8,2.8-2.9,3.7c-1.8,1.1-3.5,1.7-5.1,1.7c0-0.2,0-0.5,0-0.7c0-5.7-1.9-8-5.8-7.1c-1.1,0.2-2.1,0.7-3.1,1.4
		c0-0.2,0-0.4,0-0.7c0-0.5,0-1,0-1.4c0-2.8,0-4.6,0-5.4v-0.3C580.1,412.4,580.1,412,580.1,411.6z M713.8,507l-0.3,0.3
		c-1.4,2.3-3.3,3.7-5.8,4.4c-2.5,0.7-4.8,0.1-6.8-1.7c-1.1-0.9-2.3-1.8-3.4-2.7c-4.3-4.3-6.6-8.5-6.8-12.6c0-4.3-0.3-7.2-1-8.8
		c-0.7-1.6-1.4-3.3-2-5.1c0.9,0.5,1.7,1.2,2.4,2.4c2.5,2.5,4.4,4.1,5.8,4.8c1.6,0.7,3.2,2,4.8,4.1c0.9,1.1,2.1,2.6,3.7,4.4
		c0.4,0.5,0.9,0.9,1.4,1.4c1.4,1.4,2.9,2.6,4.8,3.7C712.7,502.9,713.8,504.7,713.8,507z M796,229.2c-0.5,2-0.7,5-0.7,8.8
		c0,6.8-7.7,12.9-23.1,18.3c-2.9,0.9-5.7,1.7-8.1,2.4C767.9,240.8,778.6,231,796,229.2z M637.4,383.7l-1,3.4c-2-0.7-3.8-1.8-5.4-3.4
		c-1.8-2-3.4-4.6-4.8-7.8c-0.1-0.2-0.1-0.3-0.2-0.5c-0.4-0.8-0.7-1.9-0.9-3.2c-0.7-1.8-1.1-3.2-1.4-4.1l1.4,1.4v-6.1l1,3.1
		c3.4,0.7,6.1,2.9,8.1,6.8c1,2.1,1.9,5,2.7,8.5C637.2,382.3,637.3,383,637.4,383.7z M629,759c-1.8,2.7-3.8,5.9-6.1,9.5
		c-4.1,7-6.5,11.1-7.1,12.2c-0.9,1.6-2.6,2.6-5.1,3c0.2-2,1.1-4.4,2.7-7.1c0.5-1.8,0.8-3.7,1-5.8c0.2-1.6,0.3-3.7,0.3-6.4
		c0.2,1.6,1.1,2.1,2.7,1.7c1.1-0.7,2.5-1.5,4.1-2.4c0.7-0.2,1.3-0.5,1.7-0.7c0.1-0.1,0.3-0.3,0.3-0.3c0.4-0.2,0.7-0.5,1-0.7l0.3-0.3
		c0.5-0.2,0.9-0.5,1.4-0.7C627.4,760.4,628.3,759.7,629,759z M845.2,250.9c4.5-1.6,8.1-5.1,10.9-10.5l1,1l4.4,6.8
		c-1.8,1.8-3.6,3.6-5.4,5.4c-6.8,5.9-14.4,10.6-22.8,14.3l-5.4,2c-0.2,0-0.5,0-0.7,0c-0.4,0.2-0.8,0.5-1,0.7
		c3.2-3.4,7.4-7.7,12.6-12.9C841.3,255.2,843.4,253,845.2,250.9z M803.5,217.3c0.4,1.1,0.7,2.3,0.7,3.4c0.9,2,1.9,4.3,3.1,6.8
		c0,0.4,0.1,0.8,0.3,1c0.2,0.7,0.4,1.2,0.7,1.7c1.6,3.4,3.3,6.6,5.1,9.5c0.7,0.9,1.2,1.7,1.7,2.4l0.3-9.8l7.1,1.7l2.7,14.6l-2-0.3
		l-0.7,5.4l-16.3-3.7l-7.5-20l-0.3-24.8C800.2,209.1,801.9,213.2,803.5,217.3"/>
	<path class="st16" d="M601.1,424.3c-1.8,1.5-3.4,2.2-4.8,2.2c-1.1,0-1.9-0.3-2.4-1c1-0.9,2-2.2,2.9-3.7c0.7-1.1,1.3-2.3,1.9-3.7
		l0.3-0.7c0.7-0.2,1.3-0.5,1.7-0.7c0.2-0.2,0.5-0.3,0.7-0.3c2.3,0,3.3,1.1,3.1,3.4c0,0.4-0.1,0.9-0.3,1.3c-0.4,0.7-1.3,1.6-2.4,2.7
		C601.6,424,601.3,424.2,601.1,424.3z M596.4,400c-0.9,1.6-1.5,2.9-1.7,4.1c-0.4,0.3-0.8,0.6-1.2,0.9c-1.2,0.6-2.6,0.8-4.2,0.8h-0.3
		v-1.4c0-0.7,0.1-1.4,0.2-2c0-0.5,0.1-0.9,0.2-1.4c0.2-0.7,0.6-1.5,1-2.4c0.9-1.8,2.3-3.7,4.1-5.8c0.2-0.2,0.6-0.3,1-0.3
		c0.9-0.7,1.8-0.7,2.7,0c1.1,1.1,1.5,2.3,1,3.4c-0.5,1.1-0.8,1.8-1,2C597.4,398.9,596.8,399.6,596.4,400"/>
	<path class="st17" d="M658.8,396.6h1.4c0,1.1,0,2.3,0,3.4c-2.3,1.4-4.8,2.6-7.5,3.7c-11.5,5.2-21.3,7.8-29.2,7.8h-0.3
		c0.9-0.9,1.8-1.6,2.7-2c0.2,0,0.3-0.1,0.3-0.3c1.4-1.1,2.8-2.2,4.4-3.1c0-0.2,0.1-0.3,0.3-0.3c3.4-0.7,8-2.3,13.9-4.8
		c3.4-1.1,6-2.3,7.8-3.4C654.5,397.6,656.6,397.3,658.8,396.6"/>
	<path class="st18" d="M667,358.9h0.3v-0.3c0.5-0.2,1-0.5,1.7-0.7c0.5-0.2,0.8-0.3,1-0.3l1.7-0.3c2-0.4,4,0,5.8,1.4
		c1.1,0.7,2.3,1.8,3.4,3.4h0.3c-0.7,0.5-1.2,0.7-1.7,0.7c-2.7,0-5.1,0.5-7.1,1.7c-0.2,0-0.3,0.1-0.3,0.3c-3.2,1.8-4.9,4.5-5.1,8.1
		c-1.6-1.1-2.6-2.6-3.1-4.4c-0.4-1.8-0.3-3.5,0.3-5.1C664.7,361.5,665.6,360.1,667,358.9"/>
	<path class="st19" d="M658.8,396.6c-2.3,0.7-4.3,1-6.1,1c-1.8,1.1-4.4,2.3-7.8,3.4c-5.9,2.5-10.5,4.1-13.9,4.8
		c4.3-4.3,5.7-9.1,4.1-14.3c0.7,0-0.7-2.6-4.1-7.8c1.6,1.6,3.4,2.7,5.4,3.4l1-3.4c2,4.3,5,7.6,8.8,9.8c1.1,0.7,2.1,1.3,3,1.7
		C652.5,396.9,655.7,397.3,658.8,396.6"/>
	<path class="st20" d="M702.6,536.5c0.2,0.7,0.3,1.2,0.3,1.7l-1.7,30.2c0,0.7-0.1,1.2-0.3,1.7c0,0.2,0,0.6,0,1
		c0,0.2-0.1,0.5-0.3,0.7c-1.6,3.4-3.4,7.2-5.4,11.5c-12.7,27.9-20,46.4-21.7,55.7v0.3c-0.5,2.8-1.2,6.9-2,12.1
		c-1.8,10.6-4.3,26-7.5,46.3c-0.9,5-1.7,9.6-2.4,13.9c-0.2-2.7-0.3-5.3-0.3-7.8c-0.2-7.7-1-16.4-2.4-26.2
		c-0.8-5.7-1.5-11.6-2.2-17.8c-0.4-3.4-0.8-6.9-1.2-10.5c-0.1-1-0.2-2.1-0.3-3.2c-1.1-11.3-1.7-22.2-1.7-32.6c0-0.4,0-1,0-1.7v-4.8
		l-0.3-18.3c0-0.7,0-1.1,0-1.4c0.8-1.8,1.5-3.6,2.4-5.4c0.7-1.8,1.5-3.5,2.4-5.3c2.3-5,4.8-9.8,7.5-14.4c0.2,0,0.6-0.1,1-0.3
		c16.5-5,28-12.4,34.3-22.4c0.2-0.4,0.4-0.9,0.7-1.4c0.2-0.2,0.4-0.3,0.7-0.3v-0.3C702.2,537.3,702.4,537,702.6,536.5z M592.3,655.1
		c-1.1-3.8-2.1-7.6-2.9-11.5c-0.8-4.4-1.3-9-1.5-13.6c-0.5-7.9-0.1-15.8,1-23.8c2.3-13.1,5.1-26.3,8.5-39.4c0.9-4,1.9-7.9,3.1-11.7
		c0.6-2.2,1.3-4.4,2-6.6c1.1,2.4,2.6,4.6,4.2,6.5c2.4,2.7,5.4,4.9,9,6.5c2.5,1.3,5.4,2.2,8.5,2.9c2.5,0.6,5.2,1,8.1,1.2H649
		c0.7,0,1.2,0,1.7,0c-1.9,1.5-3.6,2.9-5.3,4.2c-1.8,1.4-3.4,2.7-4.9,3.9c-0.6,0.5-1.2,0.9-1.7,1.4c-16.5,14.5-29.1,30.3-37.7,47.5
		c-0.5,0.8-2.1,6.6-4.9,17.3C595.1,644.1,593.8,649.1,592.3,655.1"/>
	<path class="st21" d="M636.1,671.9c0.6,6,0.7,13.8,0.3,23.6c-0.4,12.7-0.2,23.9,0.7,33.6c0.7,9.7,2.5,16.9,5.4,21.4v0.3
		c-1.4,0.4-3.4,1.4-6.1,2.7c-2.5,1.4-4.4,2.5-5.8,3.4c-0.5,0.7-1,1.4-1.7,2c-0.7,0.7-1.6,1.4-2.7,2.1c-0.4,0.2-0.9,0.4-1.4,0.7
		l-0.3,0.3c-0.3,0.2-0.6,0.5-1,0.7c-0.6,0.4-1.3,0.7-2.1,1c-1.6,0.9-2.9,1.7-4.1,2.4c-1.6,0.5-2.5-0.1-2.7-1.7
		c0-0.7,0.2-1.8,0.7-3.4c1.1-4.3,0.7-13-1.4-26.2c-2-13.4-4.8-26.5-8.1-39.4c-0.5-1.8-1-3.5-1.5-5.3c-1-3.2-1.9-6.3-2.9-9.3
		c-2.3-7-4.7-13.6-7.1-19.7c-0.7-2-1.4-4.1-2-6.1c1.5-5.9,2.8-11,3.9-15.3c2.8-10.7,4.4-16.5,4.9-17.3c8.6-17.2,21.2-33.1,37.7-47.5
		c0.5-0.4,1.1-0.9,1.7-1.4c1.5-1.2,3.1-2.5,4.9-3.9c1.6-1.3,3.4-2.7,5.3-4.2c-0.5,0-1,0-1.7,0c5.9-0.5,11.3-1.5,16.3-3.1
		c-2.7,4.6-5.1,9.4-7.5,14.4c-0.8,1.7-1.6,3.5-2.4,5.3c-0.8,1.8-1.6,3.6-2.4,5.4c0,0.2,0,0.7,0,1.4c-0.2-1.1-0.3-2-0.3-2.7
		c-1.4,1.6-2.4,3.3-3.1,5.1c-4,8.2-7.9,16.4-11.5,24.6c-2.1,4.7-4.1,9.4-6.1,14.1c-1.8,4.5-2.2,9.3-1,14.3
		c1.7,6.3,2.9,12.1,3.7,17.3c0.3,1.9,0.5,3.7,0.7,5.4C635.7,668.4,635.9,670.1,636.1,671.9z M663.2,753.2c-0.5,0-0.8,0-1,0
		c-2,0-3.5-0.4-4.4-1.4c-0.9-0.9-0.9-2.7,0-5.4c2-4.3,3.2-10.5,3.4-18.7c0.2-5.4,0.3-10.7,0.3-15.9c0.7-4.3,1.5-9,2.4-13.9
		c3.2-20.3,5.7-35.8,7.5-46.3c0.8-5.2,1.5-9.2,2-12.1v-0.3c1.8-9.2,9-27.8,21.7-55.7c2-4.3,3.8-8.2,5.4-11.5
		c-0.9,4.3-1.9,8.6-3.1,12.9c-2.5,8.4-4.2,17.1-5.1,26.2c-0.4,5.8-0.6,11.6-0.5,17.5c0.1,3.5,0.3,7.1,0.5,10.7v0.2
		c1.3,14.7,0.8,29.2-1.7,43.6c-2.3,14.5-5.1,28.5-8.5,42.1c-3.4,13.6-4,21.5-1.7,23.8c-0.2,0-0.4,0-0.7,0c0-0.2-0.1-0.5-0.3-0.7
		c-1.6,0.2-4,0.6-7.1,1c-2.9,0.9-5.2,1.4-6.8,1.4C664.7,751.2,663.9,752.1,663.2,753.2"/>
	<g>
		<defs>
			<rect id="SVGID_1_" x="597" y="747.6" width="89" height="52.6"/>
		</defs>
		<clipPath id="SVGID_2_">
			<use xlink:href="#SVGID_1_"  style="overflow:visible;"/>
		</clipPath>
		<g class="st22">
			<path class="st23" d="M638.1,800.1c0.2,0.2,0.6,0.3,1,0.3c-0.5,0-0.8,0-1,0V800.1z M613.3,776.7c-1.6,2.7-2.5,5.1-2.7,7.1
				c2.5-0.4,4.2-1.5,5.1-3c0.7-1.1,3.1-5.2,7.1-12.2c2.3-3.6,4.3-6.8,6.1-9.5c0.7-0.7,1.3-1.3,1.7-2c1.4-0.9,3.3-2,5.8-3.4
				c2.7-1.4,4.8-2.3,6.1-2.7v-0.3c3.6,3.8,6.1,6.7,7.5,8.5c1.8,3.9,1.8,7.5,0,10.9c1.8-1.4,3.7-2.4,5.8-3.1c-0.4,2-0.9,3.8-1.4,5.4
				c0.7-1.4,1.6-3.2,2.7-5.4c0.7-2.5,1.2-4.4,1.7-5.8c1.1-3.2,2.6-5.8,4.4-7.8c0.7-1.1,1.5-2,2.4-2.7c1.6,0,3.9-0.5,6.8-1.4
				c3.2-0.4,5.6-0.8,7.1-1c0.2,0.2,0.3,0.5,0.3,0.7c2,3.6,3.4,6.3,4.1,8.1c0.7,2.7,0.9,5.2,0.7,7.5c-1.1-2-3.5-2.3-7.1-0.7
				c-4.8,2.3-7.9,5.2-9.5,8.8c-2,4.5-5.1,8.8-9.2,12.9c-1.1,0.9-2.3,1.8-3.4,2.7c-1.8-0.9-3.4-2.6-4.7-5.1c-0.5-1.6-0.9-3.6-1.4-6.1
				c0-1.6,0-2.9,0-4.1c0-5.9-3.3-6.2-9.9-1c-5.4,4.5-9,8.5-10.9,11.9c-1.4,3-4.2,6.2-8.5,9.9c-2.9,2.9-6.1,5.1-9.5,6.5h-0.3
				c-2.7-0.4-5.1-1.4-7.1-2.7c-2.3-1.4-3.8-2.9-4.7-4.8c-1.4-2.3-1.7-4.6-1-7.1c0.9-2.9,3.1-5,6.5-6.1c0.9-0.2,2.5-0.7,4.7-1.3
				C610.6,777.6,612.2,777.1,613.3,776.7"/>
		</g>
	</g>
	<g>
		<defs>
			<rect id="SVGID_3_" x="609.3" y="762.1" width="76.7" height="38.1"/>
		</defs>
		<clipPath id="SVGID_4_">
			<use xlink:href="#SVGID_3_"  style="overflow:visible;"/>
		</clipPath>
		<g class="st24">
			<path class="st25" d="M639.1,800.4c-0.5,0-0.8-0.1-1-0.3c-0.2-4.3-0.6-7.5-1-9.5c-0.7-3.8-2-6.7-4.1-8.5
				c-0.5,3.8-2.4,7.3-5.8,10.5c-1.4,0.9-4.6,3.2-9.9,6.8c-0.2,0.2-0.6,0.3-1,0.3c-1.8,0.5-3.7,0.6-5.8,0.3c3.4-1.4,6.6-3.5,9.5-6.5
				c4.3-3.6,7.1-6.9,8.5-9.9c1.8-3.4,5.4-7.3,10.9-11.9c6.6-5.2,9.9-4.9,9.9,1c0,1.1,0,2.5,0,4.1c-0.2-0.4-0.3-0.8-0.3-1l-0.3-1
				c-0.9,3.8-1.5,8-1.7,12.6c0,3.2,0.2,7.4,0.7,12.6C645.1,800.6,642.3,800.7,639.1,800.4z M655.4,788.2c1.1-0.9,2.3-1.8,3.4-2.7
				c4.1-4.1,7.1-8.4,9.2-12.9c1.6-3.6,4.8-6.6,9.5-8.8c3.6-1.6,6-1.4,7.1,0.7c0,0.9-0.2,1.6-0.7,2c-1.1,4.5-1.7,9.3-1.7,14.3
				c0.2,4.5,1,9.4,2.4,14.6c-1.8,0.9-3.4,1.4-4.8,1.4c-2,0-3.4-0.7-4.1-2c-0.5-1.1-0.8-2.9-1-5.4c-0.2-2.3-0.6-4-1-5.1
				c-3.8,1.1-6.7,2-8.5,2.7c-3.4,0.9-6.3,1.4-8.8,1.4C656,788.2,655.7,788.2,655.4,788.2"/>
		</g>
	</g>
	<path class="st26" d="M203.5,337.2l2,4.8l-45.8,25.8l-2-5.1L203.5,337.2z M165.5,382l45.9-25.8l2,5.1l-45.8,25.8L165.5,382z
		 M171.3,395.9l-2-5.1l45.5-25.8l2,5.1L171.3,395.9z M185.5,398.3l-2-5.1l35.6-20.4l2,5.1L185.5,398.3z M179.1,412.6l-2-5.1
		l45.8-25.5l2,5.1L179.1,412.6z M207.3,348.4l2,5.1l-35.7,20l-2-5.1L207.3,348.4z M263.3,306.6c2.7-1.6,5.5-1.8,8.2-0.7
		c2.9,1.1,5,3.2,6.1,6.1c1.1,3.2,1.3,6.2,0.3,9.2c-0.9,3.4-2.6,5.8-5.1,7.1c-2.9,1.6-5.8,1.8-8.5,0.7c-2.7-0.9-4.6-2.9-5.8-6.1
		c-1.1-2.9-1.3-6-0.3-9.2C259.1,310.6,260.8,308.2,263.3,306.6z M155.3,193.9c2.7-1.6,5.2-1.9,7.5-1c3.2,1.1,5.3,3.2,6.5,6.1
		c1.4,2.9,1.4,6,0,9.2c-0.7,3.2-2.2,5.4-4.4,6.8c-3.2,1.8-6,2.3-8.5,1.4c-2.7-1.4-4.8-3.5-6.1-6.5c-1.1-2.9-1.4-6-0.7-9.2
		C150.5,197.5,152.4,195.2,155.3,193.9z M388.9,117.1l2,4.8L344.8,148l-2-5.1L388.9,117.1z M365.5,172.1L413,145l39.7,98.8
		l-48.2,26.8L365.5,172.1z M380.8,93.7l2,5.1l-46.2,26.1l-2.1-5.1L380.8,93.7z M375.7,83.8l2,5.1l-46.2,26.2l-2-5.1L375.7,83.8z
		 M325.1,96l-2-5.1l45.8-26.2l2,5.1L325.1,96z M338.3,98.8l-2-5.1l35.3-20l2.4,5.1L338.3,98.8z M305,95l-2-5.1l61.5-34.3l2,5.1
		L305,95z M345.8,274.7l12.6,2.7c0.9,1.1,2,2,3.4,2.7c2,0.9,4.2,0.9,6.5,0l28.2,7.1c-2,1.8-3.6,4.4-4.8,7.8l-41.1-10.2
		c0-1.6-0.3-3.1-1-4.4C348.6,278.2,347.4,276.3,345.8,274.7z M207.9,249.9c-1.1-2.7-3.2-4.6-6.1-5.8c-2.5-0.9-5-0.7-7.5,0.7
		c-0.4,0.2-0.9,0.6-1.4,1l-50.9-12.2c-0.2-0.9-0.5-1.8-0.7-2.7c-1.1-2.7-3.3-4.6-6.4-5.8c-2.5-0.9-5.1-0.6-7.8,1
		c-1.1,0.7-2.3,1.6-3.4,2.7l-37.4-9.5l10.9-6.1l146,36.3c1.6,1.8,3.3,3.2,5.1,4.1c2.9,0.9,5.8,0.7,8.5-0.7l72,17.7
		c-0.7,0-1.5,0.3-2.4,1c-2.5,1.1-4.5,3.1-6.1,5.8L207.9,249.9z M424.6,302.9c0.2-3.2-0.2-6.3-1.4-9.5l76.4,19.4l-10.9-26.8l-2,1
		c-0.7,0.2-1.4,0.2-2,0c-1.6-0.7-2.4-1.2-2.4-1.7c-0.5-0.5-0.6-0.8-0.3-1v-0.7c0.2-0.4,0.6-0.7,1-0.7v-0.3l3.7-1.7l-12.6-30.9
		l-1.7,1.3c-0.9,0.2-1.7,0.1-2.4-0.3c-0.9-0.4-1.5-1-1.7-1.7c-0.7-0.2-1-0.6-1-1l0.3-0.3c0-0.7,0.2-1,0.7-1l0.3,0.3l3.4-2.4
		l-12.2-30.6l-2,1c-0.5,0.2-1,0.3-1.7,0.3c-0.2,0-0.3-0.2-0.3-0.7c-1.4-0.4-2.4-1-3-1.7l0.3-0.3h-0.3c0.2-0.4,0.4-0.8,0.7-1l0.3-0.3
		c0.2-0.2,0.3-0.5,0.3-0.7l3.7-2L446,178.2l-2.4,1.4c-0.5,0.2-1.3,0.1-2.4-0.3c-1.6-0.7-2.4-1.3-2.4-1.7c0-0.2-0.2-0.5-0.7-0.7
		c0.2-0.2,0.3-0.5,0.3-0.7v-0.3c0.2,0.2,0.5,0.2,0.7,0c0-0.5,0.1-0.7,0.3-0.7l3.7-2L431,142.2l-2,1.4c-0.4,0.2-1.2,0.2-2.4,0v-0.3
		c-1.6-0.5-2.3-0.9-2-1.4c-0.2-0.5-0.3-0.8-0.3-1c-0.2-0.5-0.1-0.8,0.3-1v-0.3h0.7l3.4-2.7l-12.2-30.2l-2,1c-0.4,0.5-1.1,0.5-2,0
		c-1.6-0.4-2.4-1-2.4-1.7c0-0.2-0.2-0.3-0.7-0.3l0.3-0.3c-0.2-0.4-0.2-0.7,0-0.7c0.4-0.7,0.7-1.3,0.7-1.7l4.1-1.7l-12.6-30.6l-2,1
		c-0.4,0.5-1.1,0.6-2,0.3v-0.3c-1.4-0.4-2-1-2-1.7c-0.7-0.2-0.8-0.7-0.3-1.4c-0.2,0-0.3-0.1-0.3-0.3c0.2-0.2,0.6-0.3,1-0.3
		c0-0.2,0-0.5,0-0.7l3.7-2l-6.1-14.9c-0.2-0.5,0-0.7,0.7-0.7c0-0.5,0.2-0.8,0.7-1h1.4c0.4,0,0.9,0.1,1.4,0.3
		c0.7,0.2,1.1,0.8,1.4,1.7l106.6,263.2l11.9,3.1l-10.2,6.4l-6.1-1.4l-72,41.4c-0.2,0-0.3,0.1-0.3,0.4l-32.3,18.7
		c0.2,0.2,0.1,0.3-0.3,0.3L364.5,401v0.7l-31.6,18.4h-0.3L300,438.7h-0.7l-31.6,19c0-0.2-0.1-0.2-0.3,0l-31.9,18.7h-0.3l-32.3,19.3
		c0-0.2-0.1-0.3-0.3-0.3l-5.1,2.7l-6.1-2.7l6.5-3.7l-2.4-5.8c-0.2-0.5-0.3-0.8-0.3-1h0.3c0-0.5,0.3-0.9,1-1.4c1.1,0,2.3,0.5,3.4,1.4
		c0.2,0.2,0.4,0.7,0.7,1.4l1.4,3.1l28.5-16.6l-2.4-5.8c-0.2-0.2-0.2-0.5,0-0.7c-0.4-0.5-0.6-0.7-0.3-0.7c0.2-0.4,0.9-0.7,2-0.7
		c0.4,0,1.3,0.2,2.4,0.7c0.2,0.7,0.5,1.3,0.7,1.7l1.4,3.7l28.2-16.7l-2.7-6.1c0-0.5,0-0.8,0-1c0.2-0.2,0.5-0.3,0.7-0.3l0.7-0.7
		c0.2,0,0.7,0,1.4,0c0-0.2,0.6-0.2,1.7,0c0.5,0.7,0.8,1.4,1,2l1.7,3.7l27.9-17l-2.4-5.8c0-0.5,0-0.8,0-1c0.4-0.5,0.9-0.7,1.4-0.7
		c0.7-0.5,1.7-0.2,3.1,0.7c0.4,0.2,0.8,0.7,1,1.3l1.7,3.4l27.5-16.3l-1.7-5.8c-0.4-0.4-0.7-0.9-0.7-1.4c0.2-0.2,0.3-0.2,0.3,0
		c0.5-0.7,0.8-1,1-1h0.7c0.4-0.2,1.1,0,2,0.7c0.7,0.2,1.1,0.7,1.4,1.4l1.4,3.4l27.8-16l-1.7-5.8c-0.5-0.9-0.5-1.5,0-1.7
		c0-0.5,0.3-0.8,1-1c0.9-0.5,1.8-0.2,2.7,0.7c0.4,0.4,0.7,0.8,0.7,1c0.2,0,0.5,0.1,0.7,0.3l1.4,3.4l28.2-16.3l-2.7-5.1
		c0.2-0.7,0.3-1.4,0.3-2c0.2-0.5,0.7-0.8,1.4-1c0.7,0,1.5,0.3,2.4,1c0.7,0.4,1.1,1,1.4,1.7l1.4,3.1l28.5-16.3l-0.7-0.3
		c0.2,0,0.2-0.1,0-0.3l-1.7-4.8c-0.2-0.5-0.3-0.8-0.3-1c-0.2-0.7,0.2-1.1,1.4-1.4l0.3-0.3c0.4,0,1,0.2,1.7,0.7
		c0.7,0.2,1.2,0.9,1.7,2l1.4,3.1l28.2-16.3l-2-5.8c0-0.2-0.1-0.4-0.3-0.7v-0.3c0.2-0.7,0.7-1.1,1.4-1.4c0.7,0.2,1.6,0.3,2.7,0.3
		c0.7,0.9,1.1,1.6,1.4,2l1.4,3.4l28.2-16.3l-1.7-4.1L424.6,302.9"/>
	<path class="st27" d="M199.1,328l2,5.1l-61.4,34.6l-2-5.1L199.1,328z M384.5,105.2l2,5.1l-35.6,20l-2-5.1L384.5,105.2"/>
	<path class="st28" d="M142.1,233.6c0.4,2,0.2,4.4-0.7,7.1c-0.9,3.2-2.5,5.4-4.7,6.8c-2.7,1.4-5.7,1.7-8.8,1
		c-2.3-1.1-4.1-3.3-5.4-6.5c-1.1-2.7-1.4-5.8-0.7-9.2c0.5-1.6,1.1-2.9,2-4.1c1.1-1.1,2.3-2,3.4-2.7c2.7-1.6,5.3-1.9,7.8-1
		c3.2,1.1,5.3,3.1,6.4,5.8C141.6,231.8,141.9,232.7,142.1,233.6z M251.1,280.1c2,4.8,2.3,9.6,0.7,14.6c-1.6,5.2-4.5,9.1-8.8,11.5
		c-4.1,2.5-8.4,2.8-12.9,1c-0.4-0.2-1-0.4-1.7-0.7c-3.8-2-6.6-5.2-8.1-9.5c-2-4.5-2.1-9.4-0.3-14.6c1.4-5.2,4.2-9.1,8.5-11.5
		c4.3-2.3,8.6-2.6,12.9-1C245.7,271.5,249,274.9,251.1,280.1z M345.8,274.7c1.6,1.6,2.8,3.5,3.7,5.8c0.7,1.4,1,2.8,1,4.4
		c0.7,3.2,0.6,6.7-0.3,10.5c-1.8,5-4.7,8.7-8.8,11.2c-4.3,2.3-8.6,2.6-12.9,1c-4.5-1.8-7.8-5.1-9.8-9.9c-2-5-2.3-10-0.7-14.9
		c0.4-2,1.2-3.8,2.4-5.4c1.6-2.7,3.6-4.6,6.1-5.8c0.9-0.7,1.7-1,2.4-1c3.6-1.6,7.1-1.6,10.5,0C342.1,271.5,344.2,272.9,345.8,274.7"
		/>
	<g>
		<defs>
			<rect id="SVGID_5_" x="788.2" y="239.6" width="112.5" height="202.7"/>
		</defs>
		<clipPath id="SVGID_6_">
			<use xlink:href="#SVGID_5_"  style="overflow:visible;"/>
		</clipPath>
		<g class="st29">
			<path class="st30" d="M888,387.8l-16.3,19.4c-18.6,20.4-35.2,31.6-49.9,33.6c-14.7,2-25.7,1.5-32.9-1.7
				c18.3-13.6,30.4-28.6,36.3-45.2c7.5-21.3,11.2-38,11.2-50.3v-0.3c1.6-1.6,2.9-3.2,4.1-4.8c1.1-5.7,1.7-9.9,1.7-12.6
				c0-10-2.7-18.2-8.1-24.8c-5.4-6.1-11.5-9.1-18.3-8.8c-4.7,0-8.8,1.1-12.2,3.4c2.7-5.7,6.1-11.1,10.2-16.3
				c1.4-1.8,2.6-3.5,3.7-5.1c2.3-2.5,4.3-5,6.1-7.5v5.1c0-0.2,0.2-0.3,0.7-0.3c0.2-0.2,0.4-0.3,0.7-0.3c0-0.2,0.1-0.3,0.3-0.3
				c0-0.2,0.1-0.3,0.3-0.3c0.2,0,0.4,0,0.7,0c0.2-0.2,0.6-0.4,1-0.7c0.2,0,0.5,0,0.7,0l5.4-2c8.4-3.6,16-8.4,22.8-14.3
				c1.8-1.8,3.6-3.6,5.4-5.4l-4.4-6.8c1.6-0.5,3.2-0.8,4.7-1c20.1-3.4,32.8,6.7,38,30.2c1.4,7.2,1.5,14.8,0.3,22.8
				c-0.9,5-1.7,10-2.4,14.9c-1.1,6.1-2.1,12.1-3,18c-0.9,4.5-1.7,9.2-2.4,13.9c-1.6,11.8-3.2,23.4-4.7,35L888,387.8"/>
		</g>
	</g>
	<path class="st31" d="M826.2,270.6c-0.2,0-0.4,0-0.7,0c-0.2,0-0.3,0.1-0.3,0.3c-0.2,0-0.3,0.1-0.3,0.3c-0.2,0-0.4,0.1-0.7,0.3
		c-0.4,0-0.7,0.1-0.7,0.3v-5.1l-0.7-11.9c1.6-1.8,3.2-3.6,4.8-5.4c0.7,0.2,1.4,0.5,2,0.7c6.1,2,11.3,2.3,15.6,0.7
		c-1.8,2-4,4.3-6.5,6.8C833.6,262.9,829.4,267.2,826.2,270.6z M798.7,229.9l7.5,20c-6.1,7.7-14,13.2-23.8,16.6
		c-1.4,0.5-2.6,0.7-3.7,0.7l-4.7-0.7l-10.9-2c0.5-2,0.8-4,1-5.8c2.5-0.7,5.2-1.5,8.1-2.4c15.4-5.4,23.1-11.5,23.1-18.3
		c0-3.8,0.2-6.8,0.7-8.8c0-0.2,0.2-0.3,0.7-0.3C797.4,229.3,798,229.6,798.7,229.9"/>
	<path class="st32" d="M773.3,318.2c-3.4,2-7.5,4.2-12.2,6.4h-7.1c-0.9,0.2-1.4-1-1.4-3.7c0-0.7,1.9-5,5.8-12.9
		c4.5-9.3,7.9-18.7,10.2-28.2c0.9-4.3,2.7-8.7,5.4-13.2l4.7,0.7l4.8,3.7l-9.9,47.2H773.3z M835,322.6c1.4,5,2,11.1,2,18.3
		c-0.9,0.9-1.7,1.8-2.4,2.7c-10.9,7.2-23,10.9-36.3,10.9h-3.1c-22.2,10.9-41.1,9.5-56.7-4.1l-0.3-0.3c2.7-0.9,5.3-1.8,7.8-2.7
		c25.6-8.1,43.6-13.3,54-15.3C805.1,331,816.7,327.8,835,322.6"/>
	<path class="st33" d="M835,322.6c-18.3,5.2-30,8.4-35,9.5c-10.4,2-28.4,7.1-54,15.3c-2.5,0.9-5.1,1.8-7.8,2.7
		c-4.1-4.3-5.3-9.3-3.7-14.9c7.2-24.2,15.5-47.9,24.8-71l3.7,0.3l10.9,2c-2.7,4.5-4.5,8.9-5.4,13.2c-2.3,9.5-5.7,18.9-10.2,28.2
		c-3.8,7.9-5.8,12.2-5.8,12.9c0,2.7,0.5,4,1.4,3.7h7.1c4.7-2.3,8.8-4.4,12.2-6.4l-0.3,2l24.1-8.5l18.7-5.1
		C825.2,307.1,831.7,312.4,835,322.6z M832.3,701.3c-3.9-0.7-7.5-0.9-10.9-0.7c-26,3.2-45.3-4.5-57.7-23.1
		c2.7-10.2,10.5-14,23.4-11.5c5.4,0.5,11.1,0.5,17,0c-0.7,0.9-1,1.7-1,2.4C802.7,685.3,812.4,696.3,832.3,701.3"/>
	<path class="st34" d="M825.2,248.5c0.7,0.2,1.5,0.6,2.4,1c-1.6,1.8-3.2,3.6-4.8,5.4l-0.3-1.4l0.7-5.4L825.2,248.5"/>
	<path class="st35" d="M798.4,354.5c13.4,0,25.5-3.6,36.3-10.9c0.7-0.9,1.5-1.8,2.4-2.7c0-7.2-0.7-13.4-2-18.3
		c-3.4-10.2-9.9-15.5-19.4-16l-18.7,5.1c0.2-0.7,0.4-1.5,0.7-2.4c0.2-1.1,0.6-2.2,1-3.1c1.4-3.4,2.9-6.9,4.8-10.5
		c3.4-2.3,7.5-3.4,12.2-3.4c6.8-0.2,12.9,2.7,18.3,8.8c5.4,6.6,8.1,14.8,8.1,24.8c0,2.7-0.6,6.9-1.7,12.6c-1.1,1.6-2.5,3.2-4.1,4.8
		v0.3c0,12.2-3.7,29-11.2,50.3c-5.9,16.5-18,31.6-36.3,45.2c0-1.8,0.1-3.4,0.3-4.8c0.7-5.2,1.5-10.4,2.4-15.6L798.4,354.5"/>
	<path class="st36" d="M854.4,656.4l-0.3-12.2c0,0.2,0.1,0.4,0.3,0.7c1.6,0.9,3,1.8,4.4,2.7h0.7c0.7,0.5,1.4,0.8,2,1
		c1.1,0.2,2.3,0.5,3.4,0.7c5,1.4,10,0.8,14.9-1.7l-0.3,4.1c-7.5,7-15.8,7.6-25.1,1.7V656.4z M851,701.9c-4.8,8.1-12.6,10.8-23.4,7.8
		c-3.4-1.1-7-2-10.9-2.7v-4.7c-23.1,4.7-39.9-1.5-50.6-18.7c-1.1-1.8-1.9-3.8-2.4-6.1c12.4,18.6,31.7,26.3,57.7,23.1
		c3.4-0.2,7,0,10.9,0.7L851,701.9"/>
</g>
</svg>
